<svg width="604" height="86" viewBox="0 0 604 86" fill="none" xmlns="http://www.w3.org/2000/svg">
<path d="M41.4762 26.3871C38.4743 29.4056 35.6548 32.2251 33.2168 34.6631C35.8459 33.5202 38.676 32.9114 41.5425 32.8719H41.8411C44.3756 32.8846 46.8709 33.4985 49.122 34.6631C50.554 35.3918 51.8725 36.3248 53.0361 37.4329C53.0527 37.4494 53.0693 37.4494 53.0693 37.4826C53.1688 37.5655 53.2517 37.6485 53.3512 37.748C53.4341 37.8309 53.5336 37.9304 53.6332 38.0465C53.7392 38.1276 53.834 38.2224 53.9151 38.3285C55.2585 39.6553 56.6848 41.0816 58.1775 42.5577C58.3102 42.6904 58.4428 42.8396 58.5921 42.9723C61.196 45.5762 63.9657 48.3625 66.835 51.2317C69.4222 53.819 72.0759 56.4727 74.7129 59.1097L75.1608 59.5575C77.7149 62.1116 80.269 64.6657 82.7567 67.1535L91.3645 75.7612C91.4971 75.8939 91.6298 76.0266 91.7625 76.1427C95.6212 80.4944 101.266 85.2148 107.966 85.2812H108.232C112.451 85.3069 116.529 83.7641 119.675 80.9523C120.007 80.6041 120.355 80.2558 120.72 79.9075C121.914 78.6968 123.175 77.4362 124.468 76.1426L141.054 59.5574L141.07 59.5408H141.087C141.122 59.4935 141.161 59.4492 141.203 59.4082C144.172 56.4228 146.975 53.6365 149.379 51.2317C146.752 52.1687 143.992 52.6783 141.203 52.7409C138.735 52.8075 136.285 52.2904 134.055 51.2317C132.654 50.5668 131.357 49.7007 130.207 48.661C129.788 48.2839 129.39 47.8853 129.013 47.4668L107.966 26.4202L107.933 26.387L99.6238 18.0779C96.7546 15.2086 93.9682 12.4223 91.3644 9.81845L87.1352 5.58923C86.6542 5.10825 86.1899 4.64386 85.7254 4.17947C82.6991 1.48094 78.7841 -0.00708841 74.7294 2.53891e-05H74.7128C72.537 -0.00229165 70.3823 0.425878 68.3728 1.25988C66.3632 2.09389 64.5384 3.31723 63.0037 4.85947L62.9539 4.90923C61.4447 6.41848 59.8359 8.02725 58.1774 9.68577V9.80185H58.0613L49.7853 18.0779C47.0487 20.8144 44.3287 23.5344 41.7415 26.1217L41.4762 26.3871Z" fill="#00C6DE"/>
<path d="M107.903 26.3871C110.905 29.4056 113.725 32.2251 116.163 34.6631C113.533 33.5203 110.703 32.9114 107.837 32.8719H107.538C105.004 32.8846 102.509 33.4985 100.257 34.6631C98.8254 35.3918 97.507 36.3248 96.3434 37.4329C96.3268 37.4494 96.3102 37.4494 96.3102 37.4826C96.2107 37.5655 96.1277 37.6485 96.0282 37.748C95.9453 37.8309 95.8457 37.9304 95.7463 38.0465C95.6402 38.1276 95.5454 38.2224 95.4643 38.3285C94.1209 39.6553 92.6946 41.0816 91.2019 42.5577C91.0693 42.6904 90.9366 42.8396 90.7873 42.9723C88.1834 45.5762 85.4137 48.3625 82.5445 51.2317C79.9572 53.819 77.3035 56.4727 74.6665 59.1097L74.2187 59.5575C71.6646 62.1116 69.1105 64.6657 66.6227 67.1535L58.015 75.7612C57.8823 75.8939 57.7496 76.0266 57.6169 76.1427C53.7582 80.4944 48.1136 85.2148 41.4132 85.2812H41.1478C36.9285 85.3069 32.8501 83.7641 29.7041 80.9523C29.3725 80.6041 29.0242 80.2558 28.6592 79.9075C27.4651 78.6968 26.2046 77.4362 24.9109 76.1426L8.32575 59.5574L8.30914 59.5408H8.29259C8.25757 59.4935 8.21873 59.4492 8.17649 59.4082C5.20774 56.4228 2.40485 53.6365 0 51.2317C2.62726 52.1687 5.38782 52.6783 8.17649 52.7409C10.6448 52.8075 13.094 52.2904 15.3247 51.2317C16.7257 50.5668 18.022 49.7007 19.1725 48.661C19.591 48.2839 19.9896 47.8853 20.3666 47.4668L41.4132 26.4202L41.4464 26.387L49.7556 18.0779C52.6248 15.2086 55.4111 12.4223 58.015 9.81845L62.2442 5.58923C62.7252 5.10825 63.1896 4.64386 63.654 4.17947C66.6803 1.48094 70.5952 -0.00708841 74.6499 2.53891e-05H74.6665C76.8423 -0.00229438 78.997 0.425878 81.0066 1.25988C83.0162 2.09389 84.8409 3.31723 86.3756 4.85947L86.4254 4.90923C87.9346 6.41848 89.5434 8.02725 91.2019 9.68577V9.80185H91.318L99.594 18.0779C102.331 20.8144 105.051 23.5344 107.638 26.1217L107.903 26.3871Z" fill="#00DEEA"/>
<path d="M495.523 26.3871C492.521 29.4056 489.701 32.2251 487.263 34.6631C489.892 33.5202 492.722 32.9114 495.589 32.8719H495.887C498.422 32.8846 500.917 33.4985 503.168 34.6631C504.6 35.3918 505.919 36.3248 507.082 37.4329C507.099 37.4494 507.116 37.4494 507.116 37.4826C507.215 37.5655 507.298 37.6485 507.398 37.748C507.481 37.8309 507.58 37.9304 507.68 38.0465C507.786 38.1276 507.88 38.2224 507.961 38.3285C509.305 39.6553 510.731 41.0816 512.224 42.5577C512.357 42.6904 512.489 42.8396 512.639 42.9723C515.242 45.5762 518.012 48.3625 520.881 51.2317C523.469 53.819 526.122 56.4727 528.759 59.1097L529.207 59.5575C531.761 62.1116 534.315 64.6657 536.803 67.1535L545.411 75.7612C545.544 75.8939 545.676 76.0266 545.809 76.1427C549.668 80.4944 555.312 85.2148 562.013 85.2812H562.278C566.497 85.3069 570.576 83.7641 573.722 80.9523C574.053 80.6041 574.402 80.2558 574.767 79.9075C575.961 78.6968 577.221 77.4362 578.515 76.1426L595.1 59.5574L595.117 59.5408H595.133C595.168 59.4935 595.207 59.4492 595.249 59.4082C598.218 56.4228 601.021 53.6365 603.426 51.2317C600.798 52.1687 598.038 52.6783 595.249 52.7409C592.781 52.8075 590.332 52.2904 588.101 51.2317C586.7 50.5668 585.404 49.7007 584.253 48.661C583.835 48.2839 583.436 47.8853 583.059 47.4668L562.013 26.4202L561.979 26.387L553.67 18.0779C550.801 15.2086 548.015 12.4223 545.411 9.81845L541.182 5.58923C540.701 5.10825 540.236 4.64386 539.772 4.17947C536.745 1.48094 532.831 -0.00708841 528.776 2.53891e-05H528.759C526.583 -0.00229165 524.429 0.425878 522.419 1.25988C520.41 2.09389 518.585 3.31723 517.05 4.85947L517 4.90923C515.491 6.41848 513.882 8.02725 512.224 9.68577V9.80185H512.108L503.832 18.0779C501.095 20.8144 498.375 23.5344 495.788 26.1217L495.523 26.3871Z" fill="#00C6DE"/>
<path d="M561.95 26.3871C564.951 29.4056 567.771 32.2251 570.209 34.6631C567.58 33.5203 564.75 32.9114 561.883 32.8719H561.585C559.05 32.8846 556.555 33.4985 554.304 34.6631C552.872 35.3918 551.553 36.3248 550.39 37.4329C550.373 37.4494 550.357 37.4494 550.357 37.4826C550.257 37.5655 550.174 37.6485 550.075 37.748C549.992 37.8309 549.892 37.9304 549.793 38.0465C549.687 38.1276 549.592 38.2224 549.511 38.3285C548.167 39.6553 546.741 41.0816 545.248 42.5577C545.116 42.6904 544.983 42.8396 544.834 42.9723C542.23 45.5762 539.46 48.3625 536.591 51.2317C534.004 53.819 531.35 56.4727 528.713 59.1097L528.265 59.5575C525.711 62.1116 523.157 64.6657 520.669 67.1535L512.061 75.7612C511.929 75.8939 511.796 76.0266 511.663 76.1427C507.805 80.4944 502.16 85.2148 495.46 85.2812H495.194C490.975 85.3069 486.896 83.7641 483.75 80.9523C483.419 80.6041 483.071 80.2558 482.706 79.9075C481.511 78.6968 480.251 77.4362 478.957 76.1426L462.372 59.5574L462.356 59.5408H462.339C462.304 59.4935 462.265 59.4492 462.223 59.4082C459.254 56.4228 456.451 53.6365 454.046 51.2317C456.674 52.1687 459.434 52.6783 462.223 52.7409C464.691 52.8075 467.14 52.2904 469.371 51.2317C470.772 50.5668 472.068 49.7007 473.219 48.661C473.637 48.2839 474.036 47.8853 474.413 47.4668L495.46 26.4202L495.493 26.387L503.802 18.0779C506.671 15.2086 509.457 12.4223 512.061 9.81845L516.291 5.58923C516.772 5.10825 517.236 4.64386 517.7 4.17947C520.727 1.48094 524.642 -0.00708841 528.696 2.53891e-05H528.713C530.889 -0.00229438 533.043 0.425878 535.053 1.25988C537.063 2.09389 538.887 3.31723 540.422 4.85947L540.472 4.90923C541.981 6.41848 543.59 8.02725 545.248 9.68577V9.80185H545.364L553.64 18.0779C556.377 20.8144 559.097 23.5344 561.684 26.1217L561.95 26.3871Z" fill="#00DEEA"/>
<path d="M268.499 26.3871C265.497 29.4056 262.678 32.2251 260.24 34.6631C262.869 33.5202 265.699 32.9114 268.565 32.8719H268.864C271.399 32.8846 273.894 33.4985 276.145 34.6631C277.577 35.3918 278.895 36.3248 280.059 37.4329C280.076 37.4494 280.092 37.4494 280.092 37.4826C280.192 37.5655 280.275 37.6485 280.374 37.748C280.457 37.8309 280.557 37.9304 280.656 38.0465C280.762 38.1276 280.857 38.2224 280.938 38.3285C282.281 39.6553 283.708 41.0816 285.2 42.5577C285.333 42.6904 285.466 42.8396 285.615 42.9723C288.219 45.5762 290.989 48.3625 293.858 51.2317C296.445 53.819 299.099 56.4727 301.736 59.1097L302.184 59.5575C304.738 62.1116 307.292 64.6657 309.78 67.1535L318.387 75.7612C318.52 75.8939 318.653 76.0266 318.785 76.1427C322.644 80.4944 328.289 85.2148 334.989 85.2812H335.255C339.474 85.3069 343.552 83.7641 346.698 80.9523C347.03 80.6041 347.378 80.2558 347.743 79.9075C348.937 78.6968 350.198 77.4362 351.491 76.1426L368.077 59.5574L368.093 59.5408H368.11C368.145 59.4935 368.184 59.4492 368.226 59.4082C371.195 56.4228 373.997 53.6365 376.402 51.2317C373.775 52.1687 371.014 52.6783 368.226 52.7409C365.757 52.8075 363.308 52.2904 361.078 51.2317C359.677 50.5668 358.38 49.7007 357.23 48.661C356.811 48.2839 356.413 47.8853 356.036 47.4668L334.989 26.4202L334.956 26.387L326.647 18.0779C323.778 15.2086 320.991 12.4223 318.387 9.81845L314.158 5.58923C313.677 5.10825 313.213 4.64386 312.748 4.17947C309.722 1.48094 305.807 -0.00708841 301.752 2.53891e-05H301.736C299.56 -0.00229165 297.405 0.425878 295.396 1.25988C293.386 2.09389 291.561 3.31723 290.027 4.85947L289.977 4.90923C288.468 6.41848 286.859 8.02725 285.2 9.68577V9.80185H285.084L276.808 18.0779C274.072 20.8144 271.352 23.5344 268.764 26.1217L268.499 26.3871Z" fill="#00C6DE"/>
<path d="M334.926 26.3871C337.928 29.4056 340.747 32.2251 343.186 34.6631C340.556 33.5203 337.726 32.9114 334.86 32.8719H334.561C332.027 32.8846 329.531 33.4985 327.28 34.6631C325.848 35.3918 324.53 36.3248 323.366 37.4329C323.35 37.4494 323.333 37.4494 323.333 37.4826C323.234 37.5655 323.151 37.6485 323.051 37.748C322.968 37.8309 322.869 37.9304 322.769 38.0465C322.663 38.1276 322.568 38.2224 322.487 38.3285C321.144 39.6553 319.718 41.0816 318.225 42.5577C318.092 42.6904 317.96 42.8396 317.81 42.9723C315.206 45.5762 312.437 48.3625 309.567 51.2317C306.98 53.819 304.326 56.4727 301.689 59.1097L301.242 59.5575C298.688 62.1116 296.133 64.6657 293.646 67.1535L285.038 75.7612C284.905 75.8939 284.773 76.0266 284.64 76.1427C280.781 80.4944 275.137 85.2148 268.436 85.2812H268.171C263.951 85.3069 259.873 83.7641 256.727 80.9523C256.395 80.6041 256.047 80.2558 255.682 79.9075C254.488 78.6968 253.228 77.4362 251.934 76.1426L235.349 59.5574L235.332 59.5408H235.316C235.281 59.4935 235.242 59.4492 235.199 59.4082C232.231 56.4228 229.428 53.6365 227.023 51.2317C229.65 52.1687 232.411 52.6783 235.199 52.7409C237.668 52.8075 240.117 52.2904 242.348 51.2317C243.749 50.5668 245.045 49.7007 246.195 48.661C246.614 48.2839 247.013 47.8853 247.39 47.4668L268.436 26.4202L268.469 26.387L276.779 18.0779C279.648 15.2086 282.434 12.4223 285.038 9.81845L289.267 5.58923C289.748 5.10825 290.213 4.64386 290.677 4.17947C293.703 1.48094 297.618 -0.00708841 301.673 2.53891e-05H301.689C303.865 -0.00229438 306.02 0.425878 308.03 1.25988C310.039 2.09389 311.864 3.31723 313.399 4.85947L313.448 4.90923C314.958 6.41848 316.566 8.02725 318.225 9.68577V9.80185H318.341L326.617 18.0779C329.354 20.8144 332.074 23.5344 334.661 26.1217L334.926 26.3871Z" fill="#00DEEA"/>
<path d="M221.924 58.8944C224.926 55.8758 227.745 53.0564 230.183 50.6184C227.554 51.7612 224.724 52.3701 221.857 52.4096H221.559C219.024 52.3969 216.529 51.783 214.278 50.6184C212.846 49.8897 211.527 48.9567 210.364 47.8486C210.347 47.8321 210.331 47.8321 210.331 47.7989C210.231 47.716 210.148 47.633 210.049 47.5335C209.966 47.4506 209.866 47.3511 209.767 47.235C209.661 47.1539 209.566 47.0591 209.485 46.953C208.141 45.6262 206.715 44.1999 205.222 42.7238C205.09 42.5911 204.957 42.4418 204.808 42.3092C202.204 39.7053 199.434 36.919 196.565 34.0497C193.978 31.4625 191.324 28.8088 188.687 26.1718L188.239 25.724C185.685 23.1699 183.131 20.6158 180.643 18.128L172.035 9.52026C171.903 9.38759 171.77 9.25488 171.637 9.13879C167.779 4.78713 162.134 0.0666733 155.434 0.000335693H155.168C150.949 -0.0254364 146.87 1.51736 143.725 4.32919C143.393 4.67742 143.045 5.02567 142.68 5.37402C141.486 6.58474 140.225 7.84525 138.932 9.13889L122.346 25.7241L122.33 25.7407H122.313C122.278 25.788 122.239 25.8323 122.197 25.8733C119.228 28.8587 116.425 31.645 114.021 34.0498C116.648 33.1128 119.408 32.6032 122.197 32.5406C124.665 32.474 127.115 32.9911 129.345 34.0498C130.746 34.7147 132.042 35.5808 133.193 36.6205C133.612 36.9976 134.01 37.3962 134.387 37.8147L155.434 58.8613L155.467 58.8945L163.776 67.2036C166.645 70.0729 169.432 72.8592 172.036 75.463L176.265 79.6923C176.746 80.1732 177.21 80.6376 177.674 81.102C180.701 83.8006 184.616 85.2886 188.67 85.2815H188.687C190.863 85.2838 193.018 84.8556 195.027 84.0216C197.037 83.1876 198.861 81.9643 200.396 80.422L200.446 80.3723C201.955 78.863 203.564 77.2542 205.223 75.5957V75.4796H205.339L213.615 67.2036C216.351 64.4671 219.071 61.7471 221.658 59.1598L221.924 58.8944Z" fill="#00A1A9"/>
<path d="M155.497 58.8944C152.495 55.8758 149.675 53.0564 147.237 50.6184C149.866 51.7612 152.697 52.3701 155.563 52.4096H155.862C158.396 52.3969 160.891 51.783 163.142 50.6184C164.574 49.8897 165.893 48.9567 167.057 47.8486C167.073 47.8321 167.09 47.8321 167.09 47.7989C167.189 47.716 167.272 47.633 167.372 47.5335C167.455 47.4506 167.554 47.3511 167.654 47.235C167.76 47.1539 167.854 47.0591 167.936 46.953C169.279 45.6262 170.705 44.1999 172.198 42.7238C172.331 42.5911 172.463 42.4418 172.613 42.3092C175.216 39.7053 177.986 36.919 180.855 34.0497C183.443 31.4625 186.096 28.8088 188.733 26.1718L189.181 25.724C191.735 23.1699 194.289 20.6158 196.777 18.128L205.385 9.52026C205.518 9.38759 205.65 9.25488 205.783 9.13879C209.642 4.78713 215.286 0.0666733 221.987 0.000335693H222.252C226.471 -0.0254364 230.55 1.51736 233.696 4.32919C234.027 4.67742 234.376 5.02567 234.741 5.37402C235.935 6.58474 237.195 7.84525 238.489 9.13889L255.074 25.7241L255.091 25.7407H255.107C255.142 25.788 255.181 25.8323 255.223 25.8733C258.192 28.8587 260.995 31.645 263.4 34.0498C260.773 33.1128 258.012 32.6032 255.223 32.5406C252.755 32.474 250.306 32.9911 248.075 34.0498C246.674 34.7147 245.378 35.5808 244.227 36.6205C243.809 36.9976 243.41 37.3962 243.033 37.8147L221.987 58.8613L221.954 58.8945L213.644 67.2036C210.775 70.0729 207.989 72.8592 205.385 75.463L201.156 79.6923C200.675 80.1732 200.21 80.6376 199.746 81.102C196.72 83.8006 192.805 85.2886 188.75 85.2815H188.733C186.558 85.2838 184.403 84.8556 182.393 84.0216C180.384 83.1876 178.559 81.9643 177.024 80.422L176.975 80.3723C175.465 78.863 173.856 77.2542 172.198 75.5957V75.4796H172.082L163.806 67.2036C161.069 64.4671 158.349 61.7471 155.762 59.1598L155.497 58.8944Z" fill="#00C1CB"/>
<path d="M448.947 58.8944C451.949 55.8758 454.768 53.0564 457.206 50.6184C454.577 51.7612 451.747 52.3701 448.88 52.4096H448.582C446.047 52.3969 443.552 51.783 441.301 50.6184C439.869 49.8897 438.55 48.9567 437.387 47.8486C437.37 47.8321 437.354 47.8321 437.354 47.7989C437.254 47.716 437.171 47.633 437.072 47.5335C436.989 47.4506 436.889 47.3511 436.79 47.235C436.684 47.1539 436.589 47.0591 436.508 46.953C435.164 45.6262 433.738 44.1999 432.245 42.7238C432.113 42.5911 431.98 42.4418 431.831 42.3092C429.227 39.7053 426.457 36.919 423.588 34.0497C421.001 31.4625 418.347 28.8088 415.71 26.1718L415.262 25.724C412.708 23.1699 410.154 20.6158 407.666 18.128L399.058 9.52026C398.926 9.38759 398.793 9.25488 398.66 9.13879C394.802 4.78713 389.157 0.0666733 382.457 0.000335693H382.191C377.972 -0.0254364 373.893 1.51736 370.747 4.32919C370.416 4.67742 370.068 5.02567 369.703 5.37402C368.509 6.58474 367.248 7.84525 365.954 9.13889L349.369 25.7241L349.353 25.7407H349.336C349.301 25.788 349.262 25.8323 349.22 25.8733C346.251 28.8587 343.448 31.645 341.043 34.0498C343.671 33.1128 346.431 32.6032 349.22 32.5406C351.688 32.474 354.138 32.9911 356.368 34.0498C357.769 34.7147 359.065 35.5808 360.216 36.6205C360.634 36.9976 361.033 37.3962 361.41 37.8147L382.457 58.8613L382.49 58.8945L390.799 67.2036C393.668 70.0729 396.455 72.8592 399.058 75.463L403.288 79.6923C403.769 80.1732 404.233 80.6376 404.697 81.102C407.724 83.8006 411.639 85.2886 415.693 85.2815H415.71C417.886 85.2838 420.041 84.8556 422.05 84.0216C424.06 83.1876 425.884 81.9643 427.419 80.422L427.469 80.3723C428.978 78.863 430.587 77.2542 432.245 75.5957V75.4796H432.362L440.638 67.2036C443.374 64.4671 446.094 61.7471 448.681 59.1598L448.947 58.8944Z" fill="#00A1A9"/>
<path d="M382.52 58.8944C379.518 55.8758 376.698 53.0564 374.26 50.6184C376.889 51.7612 379.719 52.3701 382.586 52.4096H382.884C385.419 52.3969 387.914 51.783 390.165 50.6184C391.597 49.8897 392.916 48.9567 394.079 47.8486C394.096 47.8321 394.113 47.8321 394.113 47.7989C394.212 47.716 394.295 47.633 394.395 47.5335C394.478 47.4506 394.577 47.3511 394.677 47.235C394.783 47.1539 394.877 47.0591 394.959 46.953C396.302 45.6262 397.728 44.1999 399.221 42.7238C399.354 42.5911 399.486 42.4418 399.636 42.3092C402.239 39.7053 405.009 36.919 407.878 34.0497C410.466 31.4625 413.119 28.8088 415.756 26.1718L416.204 25.724C418.758 23.1699 421.312 20.6158 423.8 18.128L432.408 9.52026C432.541 9.38759 432.673 9.25488 432.806 9.13879C436.665 4.78713 442.309 0.0666733 449.01 0.000335693H449.275C453.494 -0.0254364 457.573 1.51736 460.719 4.32919C461.05 4.67742 461.399 5.02567 461.764 5.37402C462.958 6.58474 464.218 7.84525 465.512 9.13889L482.097 25.7241L482.114 25.7407H482.13C482.165 25.788 482.204 25.8323 482.246 25.8733C485.215 28.8587 488.018 31.645 490.423 34.0498C487.796 33.1128 485.035 32.6032 482.246 32.5406C479.778 32.474 477.329 32.9911 475.098 34.0498C473.697 34.7147 472.401 35.5808 471.25 36.6205C470.832 36.9976 470.433 37.3962 470.056 37.8147L449.01 58.8613L448.976 58.8945L440.667 67.2036C437.798 70.0729 435.012 72.8592 432.408 75.463L428.179 79.6923C427.698 80.1732 427.233 80.6376 426.769 81.102C423.743 83.8006 419.828 85.2886 415.773 85.2815H415.756C413.581 85.2838 411.426 84.8556 409.416 84.0216C407.407 83.1876 405.582 81.9643 404.047 80.422L403.997 80.3723C402.488 78.863 400.879 77.2542 399.221 75.5957V75.4796H399.105L390.829 67.2036C388.092 64.4671 385.372 61.7471 382.785 59.1598L382.52 58.8944Z" fill="#00C1CB"/>
</svg>
