<svg width="705" height="120" viewBox="0 0 705 120" fill="none" xmlns="http://www.w3.org/2000/svg">
<path d="M519.604 94.091C522.483 91.1963 525.186 88.4925 527.524 86.1545C525.003 87.2505 522.289 87.8344 519.54 87.8722L519.254 87.8722C516.823 87.8601 514.431 87.2714 512.272 86.1545C510.899 85.4557 509.634 84.561 508.518 83.4984C508.502 83.4825 508.486 83.4825 508.486 83.4507C508.391 83.3712 508.312 83.2917 508.216 83.1963C508.137 83.1167 508.041 83.0213 507.946 82.91C507.844 82.8322 507.753 82.7413 507.675 82.6396C506.387 81.3672 505.019 79.9994 503.588 78.5839C503.461 78.4566 503.333 78.3135 503.19 78.1863C500.693 75.6892 498.037 73.0172 495.286 70.2657C492.804 67.7846 490.26 65.2398 487.731 62.711L487.301 62.2815C484.852 59.8322 482.403 57.3829 480.017 54.9972L471.762 46.7426C471.635 46.6154 471.508 46.4881 471.381 46.3768C467.68 42.2037 462.267 37.6769 455.842 37.6133L455.587 37.6133C451.541 37.5886 447.63 39.0681 444.613 41.7645C444.295 42.0985 443.961 42.4324 443.611 42.7665C442.466 43.9275 441.257 45.1363 440.017 46.3769L424.112 62.2816L424.096 62.2975L424.08 62.2975C424.047 62.3429 424.009 62.3854 423.969 62.4248C421.122 65.2876 418.434 67.9596 416.128 70.2658C418.647 69.3672 421.295 68.8785 423.969 68.8185C426.336 68.7546 428.685 69.2505 430.824 70.2658C432.167 70.9034 433.41 71.7339 434.514 72.731C434.915 73.0926 435.297 73.4748 435.659 73.8762L455.842 94.0593L455.874 94.0911L463.842 102.059C466.593 104.811 469.265 107.483 471.763 109.98L475.818 114.036C476.279 114.497 476.725 114.942 477.17 115.388C480.072 117.975 483.827 119.402 487.715 119.395L487.731 119.395C489.817 119.398 491.884 118.987 493.811 118.187C495.738 117.388 497.488 116.214 498.96 114.735L499.007 114.688C500.455 113.24 501.997 111.698 503.588 110.107L503.588 109.996L503.699 109.996L511.636 102.059C514.26 99.4351 516.868 96.8267 519.35 94.3455L519.604 94.091Z" fill="#FCAF08"/>
<path d="M455.902 94.091C453.024 91.1963 450.32 88.4925 447.982 86.1545C450.503 87.2505 453.217 87.8344 455.966 87.8723L456.252 87.8723C458.683 87.8601 461.076 87.2714 463.234 86.1545C464.608 85.4557 465.872 84.561 466.988 83.4985C467.004 83.4825 467.02 83.4826 467.02 83.4507C467.115 83.3712 467.195 83.2917 467.29 83.1963C467.37 83.1167 467.465 83.0213 467.56 82.91C467.662 82.8322 467.753 82.7413 467.831 82.6396C469.119 81.3672 470.487 79.9994 471.918 78.5839C472.046 78.4566 472.173 78.3135 472.316 78.1863C474.813 75.6892 477.469 73.0172 480.221 70.2657C482.702 67.7846 485.246 65.2398 487.775 62.711L488.205 62.2815C490.654 59.8322 493.103 57.3829 495.489 54.9972L503.744 46.7426C503.871 46.6154 503.998 46.4881 504.125 46.3768C507.826 42.2037 513.239 37.6769 519.664 37.6133L519.919 37.6133C523.965 37.5886 527.876 39.068 530.893 41.7645C531.211 42.0985 531.545 42.4324 531.895 42.7665C533.04 43.9275 534.249 45.1363 535.49 46.3769L551.394 62.2816L551.41 62.2975L551.426 62.2975C551.46 62.3429 551.497 62.3854 551.537 62.4248C554.384 65.2876 557.072 67.9596 559.378 70.2658C556.859 69.3672 554.212 68.8785 551.537 68.8185C549.17 68.7546 546.822 69.2505 544.682 70.2658C543.339 70.9034 542.096 71.7339 540.993 72.731C540.591 73.0926 540.209 73.4748 539.847 73.8762L519.664 94.0593L519.633 94.0911L511.664 102.059C508.913 104.811 506.241 107.483 503.744 109.98L499.688 114.036C499.227 114.497 498.781 114.942 498.336 115.388C495.434 117.975 491.68 119.402 487.791 119.395L487.775 119.395C485.689 119.398 483.622 118.987 481.695 118.187C479.768 117.388 478.018 116.214 476.547 114.735L476.499 114.688C475.052 113.24 473.509 111.698 471.918 110.107L471.918 109.996L471.807 109.996L463.871 102.059C461.246 99.4351 458.638 96.8267 456.157 94.3455L455.902 94.091Z" fill="#00C1CB"/>
<path d="M534.427 90.5932C537.594 86.9303 541.065 83.5414 544.802 80.4627C547.664 78 550.996 76.1434 554.596 75.0051C554.781 74.9563 554.966 74.9075 555.154 74.8744C555.398 74.7992 555.646 74.7392 555.898 74.6949C557.441 74.4212 559.023 74.4545 560.554 74.7926C562.084 75.1308 563.533 75.7673 564.817 76.6657C566.102 77.5641 567.197 78.7069 568.039 80.0287C568.882 81.3504 569.455 82.8252 569.727 84.3689C570 85.9125 569.965 87.4946 569.625 89.0248C569.286 90.555 568.648 92.0032 567.748 93.2868C566.849 94.5703 565.705 95.664 564.382 96.5052C563.06 97.3464 561.584 97.9188 560.04 98.1895C559.6 98.2634 559.156 98.3147 558.711 98.3432C555.749 98.5109 552.781 98.1483 549.946 97.2722C549.199 97.0649 548.431 96.829 547.639 96.5487C543.066 94.9628 538.644 92.9696 534.427 90.5932Z" fill="#FCAF08"/>
<path d="M441.101 90.7824C437.962 87.0954 434.518 83.6802 430.804 80.573C427.961 78.0886 424.643 76.2066 421.052 75.0409C420.867 74.9907 420.683 74.9405 420.495 74.9059C420.252 74.8288 420.004 74.767 419.753 74.7207C418.212 74.4355 416.629 74.4567 415.096 74.7833C413.563 75.1099 412.11 75.7353 410.819 76.6239C409.528 77.5125 408.424 78.6469 407.572 79.9621C406.719 81.2773 406.134 82.7477 405.851 84.2891C405.567 85.8305 405.589 87.4128 405.917 88.9454C406.245 90.4781 406.872 91.9311 407.761 93.2214C408.651 94.5118 409.786 95.6141 411.102 96.4655C412.418 97.3168 413.889 97.9005 415.431 98.1831C415.871 98.2603 416.314 98.315 416.759 98.3469C419.72 98.5372 422.691 98.1972 425.532 97.3428C426.28 97.1412 427.05 96.9111 427.845 96.6369C432.43 95.0859 436.866 93.1265 441.101 90.7824Z" fill="#00C1CB"/>
<path d="M250.461 94.0912C253.34 91.1966 256.044 88.4928 258.382 86.1548C255.861 87.2508 253.147 87.8347 250.398 87.8725L250.111 87.8725C247.681 87.8604 245.288 87.2717 243.129 86.1548C241.756 85.456 240.492 84.5613 239.376 83.4987C239.36 83.4828 239.344 83.4828 239.344 83.451C239.248 83.3715 239.169 83.2919 239.074 83.1965C238.994 83.117 238.899 83.0215 238.803 82.9102C238.701 82.8324 238.611 82.7415 238.533 82.6398C237.244 81.3674 235.877 79.9996 234.445 78.5841C234.318 78.4569 234.191 78.3137 234.048 78.1865C231.551 75.6895 228.894 73.0175 226.143 70.2659C223.662 67.7848 221.117 65.2401 218.588 62.7112L218.159 62.2818C215.709 59.8324 213.26 57.3831 210.874 54.9974L202.62 46.7429C202.493 46.6156 202.365 46.4884 202.238 46.377C198.538 42.2039 193.125 37.6771 186.699 37.6135L186.445 37.6135C182.399 37.5888 178.487 39.0683 175.47 41.7648C175.152 42.0987 174.818 42.4327 174.469 42.7667C173.323 43.9278 172.115 45.1366 170.874 46.3771L154.969 62.2819L154.953 62.2978L154.938 62.2978C154.904 62.3431 154.867 62.3857 154.826 62.425C151.979 65.2879 149.291 67.9598 146.985 70.266C149.505 69.3674 152.152 68.8788 154.826 68.8187C157.193 68.7548 159.542 69.2507 161.681 70.266C163.025 70.9036 164.268 71.7342 165.371 72.7313C165.772 73.0928 166.155 73.4751 166.516 73.8764L186.699 94.0595L186.731 94.0913L194.699 102.06C197.451 104.811 200.123 107.483 202.62 109.98L206.676 114.036C207.137 114.497 207.582 114.942 208.028 115.388C210.93 117.976 214.684 119.403 218.572 119.396L218.588 119.396C220.675 119.398 222.741 118.987 224.668 118.188C226.595 117.388 228.345 116.215 229.817 114.736L229.865 114.688C231.312 113.241 232.855 111.698 234.445 110.107L234.445 109.996L234.557 109.996L242.493 102.06C245.117 99.4353 247.726 96.8269 250.207 94.3458L250.461 94.0912Z" fill="#FCAF08"/>
<path d="M186.76 94.0912C183.881 91.1966 181.177 88.4928 178.839 86.1548C181.36 87.2508 184.074 87.8347 186.823 87.8725L187.11 87.8725C189.54 87.8604 191.933 87.2717 194.092 86.1548C195.465 85.456 196.729 84.5613 197.845 83.4987C197.861 83.4828 197.877 83.4828 197.877 83.451C197.972 83.3715 198.052 83.2919 198.147 83.1965C198.227 83.117 198.323 83.0215 198.418 82.9102C198.52 82.8324 198.61 82.7415 198.688 82.6398C199.976 81.3675 201.344 79.9996 202.776 78.5841C202.903 78.4569 203.03 78.3137 203.173 78.1865C205.67 75.6895 208.326 73.0175 211.078 70.2659C213.559 67.7848 216.104 65.2401 218.633 62.7112L219.062 62.2818C221.511 59.8324 223.961 57.3831 226.347 54.9974L234.601 46.7429C234.728 46.6156 234.856 46.4884 234.983 46.377C238.683 42.2039 244.096 37.6771 250.522 37.6135L250.776 37.6135C254.822 37.5888 258.734 39.0683 261.75 41.7648C262.068 42.0987 262.402 42.4327 262.752 42.7667C263.898 43.9278 265.106 45.1366 266.347 46.3771L282.252 62.2819L282.268 62.2978L282.283 62.2978C282.317 62.3431 282.354 62.3857 282.395 62.425C285.242 65.2878 287.93 67.9598 290.236 70.266C287.716 69.3674 285.069 68.8788 282.395 68.8187C280.028 68.7548 277.679 69.2507 275.54 70.266C274.196 70.9036 272.953 71.7342 271.85 72.7313C271.449 73.0928 271.066 73.4751 270.705 73.8764L250.522 94.0595L250.49 94.0913L242.522 102.06C239.77 104.811 237.098 107.483 234.601 109.98L230.545 114.036C230.084 114.497 229.639 114.942 229.193 115.388C226.291 117.976 222.537 119.403 218.649 119.396L218.633 119.396C216.546 119.398 214.48 118.987 212.553 118.188C210.626 117.388 208.876 116.215 207.404 114.736L207.356 114.688C205.909 113.241 204.366 111.698 202.776 110.107L202.776 109.996L202.664 109.996L194.728 102.06C192.104 99.4353 189.495 96.8269 187.014 94.3458L186.76 94.0912Z" fill="#00C1CB"/>
<path d="M265.285 90.5935C268.452 86.9306 271.922 83.5417 275.66 80.4629C278.522 78.0003 281.853 76.1436 285.453 75.0054C285.638 74.9566 285.824 74.9078 286.011 74.8746C286.255 74.7994 286.504 74.7395 286.755 74.6951C288.298 74.4215 289.881 74.4547 291.411 74.7929C292.942 75.131 294.391 75.7675 295.675 76.6659C296.959 77.5644 298.054 78.7072 298.897 80.0289C299.739 81.3507 300.313 82.8255 300.585 84.3691C300.857 85.9127 300.822 87.4948 300.483 89.025C300.143 90.5552 299.505 92.0035 298.606 93.287C297.706 94.5706 296.562 95.6642 295.24 96.5054C293.917 97.3467 292.442 97.919 290.898 98.1898C290.458 98.2637 290.014 98.315 289.568 98.3435C286.606 98.5112 283.638 98.1485 280.804 97.2725C280.057 97.0651 279.288 96.8292 278.496 96.549C273.923 94.963 269.502 92.9699 265.285 90.5935Z" fill="#FCAF08"/>
<path d="M171.958 90.7826C168.82 87.0957 165.375 83.6804 161.661 80.5732C158.818 78.0888 155.501 76.2068 151.91 75.0412C151.725 74.9909 151.54 74.9407 151.352 74.9061C151.109 74.8291 150.861 74.7672 150.61 74.721C149.069 74.4357 147.487 74.457 145.954 74.7835C144.421 75.1101 142.967 75.7356 141.676 76.6242C140.385 77.5128 139.282 78.6471 138.429 79.9624C137.577 81.2776 136.992 82.7479 136.708 84.2893C136.424 85.8308 136.447 87.413 136.775 88.9457C137.102 90.4783 137.729 91.9314 138.619 93.2217C139.509 94.512 140.644 95.6144 141.96 96.4657C143.276 97.317 144.747 97.9007 146.288 98.1833C146.728 98.2606 147.171 98.3152 147.617 98.3471C150.577 98.5374 153.548 98.1974 156.389 97.343C157.138 97.1414 157.908 96.9113 158.702 96.6372C163.287 95.0862 167.724 93.1268 171.958 90.7826Z" fill="#00C1CB"/>
<path d="M321.946 25.3048C319.068 28.1994 316.364 30.9032 314.026 33.2412C316.547 32.1452 319.261 31.5613 322.01 31.5235H322.296C324.727 31.5356 327.12 32.1243 329.279 33.2412C330.652 33.94 331.916 34.8347 333.032 35.8973C333.048 35.9132 333.064 35.9132 333.064 35.945C333.159 36.0245 333.239 36.1041 333.334 36.1995C333.414 36.279 333.509 36.3745 333.605 36.4858C333.706 36.5636 333.797 36.6545 333.875 36.7562C335.163 38.0286 336.531 39.3964 337.962 40.8119C338.09 40.9391 338.217 41.0823 338.36 41.2095C340.857 43.7065 343.513 46.3785 346.265 49.1301C348.746 51.6112 351.291 54.1559 353.819 56.6848L354.249 57.1142C356.698 59.5636 359.148 62.0129 361.533 64.3986L369.788 72.6531C369.915 72.7804 370.042 72.9076 370.17 73.019C373.87 77.1921 379.283 81.7189 385.709 81.7825H385.963C390.009 81.8072 393.92 80.3277 396.937 77.6312C397.255 77.2973 397.589 76.9633 397.939 76.6293C399.084 75.4682 400.293 74.2594 401.534 73.0189L417.438 57.1141L417.454 57.0982H417.47C417.504 57.0529 417.541 57.0103 417.581 56.971C420.428 54.1082 423.116 51.4362 425.423 49.13C422.903 50.0286 420.256 50.5172 417.581 50.5773C415.214 50.6412 412.866 50.1453 410.727 49.13C409.383 48.4924 408.14 47.6618 407.037 46.6647C406.635 46.3032 406.253 45.9209 405.892 45.5196L385.708 25.3365L385.677 25.3047L377.708 17.3364C374.957 14.5849 372.285 11.9129 369.788 9.41587L365.732 5.36015C365.271 4.89892 364.826 4.45358 364.38 4.00824C361.478 1.42042 357.724 -0.00655345 353.835 0.000268488H353.819C351.733 -0.00195348 349.667 0.40865 347.739 1.20844C345.812 2.00822 344.062 3.18138 342.591 4.66034L342.543 4.70806C341.096 6.15539 339.553 7.69815 337.962 9.28862V9.39995H337.851L329.915 17.3364C327.29 19.9607 324.682 22.5691 322.201 25.0502L321.946 25.3048Z" fill="#00C6DE"/>
<path d="M385.648 25.3048C388.527 28.1994 391.231 30.9032 393.569 33.2412C391.047 32.1452 388.333 31.5613 385.584 31.5235H385.298C382.868 31.5356 380.475 32.1243 378.316 33.2412C376.943 33.94 375.678 34.8347 374.562 35.8973C374.547 35.9132 374.531 35.9132 374.531 35.945C374.435 36.0245 374.356 36.1041 374.26 36.1995C374.181 36.279 374.085 36.3745 373.99 36.4858C373.888 36.5636 373.797 36.6545 373.719 36.7562C372.431 38.0286 371.063 39.3964 369.632 40.8119C369.505 40.9391 369.377 41.0823 369.234 41.2095C366.737 43.7065 364.081 46.3785 361.33 49.1301C358.849 51.6112 356.304 54.1559 353.775 56.6848L353.346 57.1142C350.896 59.5636 348.447 62.0129 346.061 64.3986L337.807 72.6531C337.679 72.7804 337.552 72.9076 337.425 73.019C333.724 77.1921 328.312 81.7189 321.886 81.7825H321.632C317.585 81.8072 313.674 80.3277 310.657 77.6312C310.339 77.2973 310.005 76.9633 309.655 76.6293C308.51 75.4682 307.301 74.2594 306.061 73.0189L290.156 57.1141L290.14 57.0982H290.124C290.091 57.0529 290.053 57.0103 290.013 56.971C287.166 54.1082 284.478 51.4362 282.172 49.13C284.691 50.0286 287.339 50.5172 290.013 50.5773C292.38 50.6412 294.729 50.1453 296.868 49.13C298.211 48.4924 299.454 47.6618 300.558 46.6647C300.959 46.3032 301.341 45.9209 301.703 45.5196L321.886 25.3365L321.918 25.3047L329.886 17.3364C332.638 14.5849 335.31 11.9129 337.807 9.41587L341.862 5.36015C342.324 4.89892 342.769 4.45358 343.214 4.00824C346.116 1.42042 349.871 -0.00655345 353.759 0.000268488H353.775C355.861 -0.0019561 357.928 0.408649 359.855 1.20844C361.782 2.00822 363.532 3.18138 365.004 4.66034L365.051 4.70806C366.499 6.15539 368.041 7.69815 369.632 9.28862V9.39995H369.743L377.68 17.3364C380.304 19.9607 382.912 22.5691 385.394 25.0502L385.648 25.3048Z" fill="#00DEEA"/>
<path d="M307.123 28.8023C303.956 32.4652 300.485 35.8541 296.748 38.9328C293.886 41.3955 290.554 43.2521 286.954 44.3904C286.769 44.4392 286.584 44.488 286.396 44.5211C286.152 44.5963 285.904 44.6563 285.653 44.7006C284.109 44.9743 282.527 44.9411 280.997 44.6029C279.466 44.2647 278.017 43.6282 276.733 42.7298C275.448 41.8314 274.354 40.6886 273.511 39.3668C272.669 38.0451 272.095 36.5703 271.823 35.0267C271.551 33.483 271.585 31.9009 271.925 30.3707C272.265 28.8405 272.902 27.3923 273.802 26.1087C274.702 24.8252 275.846 23.7316 277.168 22.8903C278.491 22.0491 279.966 21.4767 281.51 21.206C281.95 21.1321 282.394 21.0808 282.839 21.0523C285.801 20.8846 288.77 21.2473 291.604 22.1233C292.351 22.3306 293.119 22.5666 293.912 22.8468C298.485 24.4327 302.906 26.4259 307.123 28.8023Z" fill="#00C6DE"/>
<path d="M400.449 28.6131C403.588 32.3001 407.033 35.7153 410.746 38.8225C413.589 41.3069 416.907 43.1889 420.498 44.3546C420.683 44.4048 420.868 44.4551 421.055 44.4896C421.299 44.5667 421.547 44.6285 421.798 44.6748C423.339 44.9601 424.921 44.9388 426.454 44.6122C427.987 44.2856 429.441 43.6602 430.732 42.7716C432.023 41.883 433.126 40.7486 433.978 39.4334C434.831 38.1182 435.416 36.6478 435.7 35.1064C435.984 33.565 435.961 31.9828 435.633 30.4501C435.305 28.9174 434.679 27.4644 433.789 26.1741C432.899 24.8837 431.764 23.7814 430.448 22.9301C429.132 22.0787 427.661 21.4951 426.119 21.2124C425.68 21.1352 425.236 21.0805 424.791 21.0486C421.831 20.8583 418.86 21.1984 416.019 22.0527C415.27 22.2543 414.5 22.4844 413.705 22.7586C409.12 24.3096 404.684 26.269 400.449 28.6131Z" fill="#00DEEA"/>
<path d="M590.379 25.3045C587.5 28.1992 584.796 30.903 582.458 33.241C584.98 32.145 587.694 31.5611 590.443 31.5233H590.729C593.159 31.5354 595.552 32.1241 597.711 33.241C599.084 33.9398 600.349 34.8345 601.465 35.8971C601.481 35.913 601.496 35.913 601.496 35.9448C601.592 36.0243 601.671 36.1038 601.767 36.1993C601.846 36.2788 601.942 36.3742 602.037 36.4856C602.139 36.5633 602.23 36.6542 602.308 36.7559C603.596 38.0283 604.964 39.3961 606.395 40.8116C606.522 40.9389 606.65 41.082 606.793 41.2093C609.29 43.7063 611.946 46.3783 614.697 49.1298C617.179 51.6109 619.723 54.1557 622.252 56.6846L622.682 57.114C625.131 59.5633 627.58 62.0126 629.966 64.3983L638.22 72.6529C638.348 72.7801 638.475 72.9074 638.602 73.0187C642.303 77.1918 647.716 81.7186 654.141 81.7822H654.396C658.442 81.807 662.353 80.3275 665.37 77.631C665.688 77.2971 666.022 76.9631 666.372 76.629C667.517 75.468 668.726 74.2592 669.966 73.0186L685.871 57.1139L685.887 57.098H685.903C685.936 57.0526 685.974 57.0101 686.014 56.9708C688.861 54.1079 691.549 51.4359 693.855 49.1297C691.336 50.0284 688.688 50.517 686.014 50.577C683.647 50.6409 681.298 50.145 679.159 49.1297C677.816 48.4921 676.573 47.6616 675.469 46.6645C675.068 46.3029 674.686 45.9207 674.324 45.5194L654.141 25.3362L654.109 25.3044L646.141 17.3362C643.389 14.5847 640.717 11.9127 638.22 9.41562L634.165 5.35991C633.703 4.89867 633.258 4.45333 632.813 4.008C629.911 1.42018 626.156 -0.00679759 622.268 2.43475e-05H622.252C620.166 -0.00219763 618.099 0.408405 616.172 1.20819C614.245 2.00798 612.495 3.18113 611.023 4.6601L610.976 4.70781C609.528 6.15514 607.985 7.69791 606.395 9.28838V9.3997H606.284L598.347 17.3362C595.723 19.9605 593.115 22.5688 590.633 25.05L590.379 25.3045Z" fill="#00C6DE"/>
<path d="M654.081 25.3045C656.959 28.1992 659.663 30.903 662.001 33.241C659.48 32.145 656.766 31.5611 654.017 31.5233H653.731C651.3 31.5354 648.907 32.1241 646.749 33.241C645.375 33.9398 644.111 34.8345 642.995 35.8971C642.979 35.913 642.963 35.913 642.963 35.9448C642.868 36.0243 642.788 36.1038 642.693 36.1993C642.613 36.2788 642.518 36.3742 642.422 36.4856C642.321 36.5633 642.23 36.6542 642.152 36.7559C640.864 38.0283 639.496 39.3961 638.065 40.8116C637.937 40.9389 637.81 41.082 637.667 41.2093C635.17 43.7063 632.514 46.3783 629.762 49.1298C627.281 51.6109 624.736 54.1557 622.208 56.6846L621.778 57.114C619.329 59.5633 616.879 62.0126 614.494 64.3983L606.239 72.6529C606.112 72.7801 605.985 72.9074 605.858 73.0187C602.157 77.1918 596.744 81.7186 590.319 81.7822H590.064C586.018 81.807 582.107 80.3275 579.09 77.631C578.772 77.2971 578.438 76.9631 578.088 76.629C576.943 75.468 575.734 74.2592 574.493 73.0186L558.589 57.1139L558.573 57.098H558.557C558.523 57.0526 558.486 57.0101 558.446 56.9708C555.599 54.1079 552.911 51.4359 550.604 49.1297C553.124 50.0284 555.771 50.517 558.446 50.577C560.813 50.6409 563.161 50.145 565.3 49.1297C566.644 48.4921 567.887 47.6616 568.99 46.6645C569.392 46.3029 569.774 45.9207 570.135 45.5194L590.319 25.3362L590.35 25.3044L598.319 17.3362C601.07 14.5847 603.742 11.9127 606.239 9.41562L610.295 5.35991C610.756 4.89867 611.202 4.45333 611.647 4.008C614.549 1.42018 618.303 -0.00679759 622.192 2.43475e-05H622.208C624.294 -0.00220025 626.36 0.408405 628.288 1.20819C630.215 2.00798 631.965 3.18113 633.436 4.6601L633.484 4.70781C634.931 6.15514 636.474 7.69791 638.065 9.28838V9.3997H638.176L646.112 17.3362C648.737 19.9605 651.345 22.5688 653.826 25.05L654.081 25.3045Z" fill="#00DEEA"/>
<path d="M575.555 28.802C572.389 32.4649 568.918 35.8538 565.181 38.9326C562.319 41.3953 558.987 43.2519 555.387 44.3901C555.202 44.4389 555.017 44.4877 554.829 44.5209C554.585 44.5961 554.337 44.656 554.085 44.7004C552.542 44.974 550.96 44.9408 549.429 44.6026C547.899 44.2645 546.45 43.628 545.165 42.7296C543.881 41.8311 542.786 40.6884 541.944 39.3666C541.101 38.0448 540.528 36.57 540.255 35.0264C539.983 33.4828 540.018 31.9007 540.358 30.3705C540.697 28.8403 541.335 27.392 542.235 26.1085C543.134 24.825 544.278 23.7313 545.601 22.8901C546.923 22.0488 548.399 21.4765 549.942 21.2057C550.383 21.1318 550.827 21.0806 551.272 21.0521C554.234 20.8843 557.202 21.247 560.037 22.123C560.784 22.3304 561.552 22.5663 562.344 22.8465C566.917 24.4325 571.339 26.4256 575.555 28.802Z" fill="#00C6DE"/>
<path d="M668.882 28.6129C672.021 32.2998 675.465 35.7151 679.179 38.8223C682.022 41.3067 685.34 43.1887 688.931 44.3544C689.115 44.4046 689.3 44.4548 689.488 44.4894C689.731 44.5664 689.979 44.6283 690.23 44.6746C691.771 44.9598 693.354 44.9385 694.887 44.612C696.42 44.2854 697.873 43.6599 699.164 42.7713C700.455 41.8827 701.559 40.7484 702.411 39.4332C703.264 38.1179 703.848 36.6476 704.132 35.1062C704.416 33.5648 704.394 31.9825 704.066 30.4499C703.738 28.9172 703.111 27.4642 702.222 26.1738C701.332 24.8835 700.197 23.7812 698.881 22.9298C697.565 22.0785 696.094 21.4948 694.552 21.2122C694.112 21.1349 693.669 21.0803 693.224 21.0484C690.263 20.8581 687.292 21.1981 684.451 22.0525C683.703 22.2541 682.932 22.4842 682.138 22.7584C677.553 24.3093 673.117 26.2687 668.882 28.6129Z" fill="#00DEEA"/>
<path d="M50.3048 25.305C47.426 28.1997 44.7223 30.9035 42.3843 33.2415C44.9055 32.1455 47.6195 31.5616 50.3684 31.5237H50.6547C53.0852 31.5359 55.4782 32.1246 57.6369 33.2415C59.0102 33.9403 60.2745 34.835 61.3904 35.8975C61.4063 35.9135 61.4222 35.9135 61.4222 35.9453C61.5177 36.0248 61.5972 36.1043 61.6926 36.1997C61.7721 36.2793 61.8676 36.3747 61.963 36.486C62.0647 36.5638 62.1556 36.6547 62.2334 36.7564C63.5216 38.0288 64.8895 39.3966 66.3209 40.8121C66.4481 40.9394 66.5754 41.0825 66.7185 41.2097C69.2155 43.7068 71.8716 46.3788 74.6231 49.1303C77.1043 51.6114 79.649 54.1562 82.1779 56.685L82.6074 57.1145C85.0567 59.5638 87.506 62.0131 89.8917 64.3988L98.1463 72.6534C98.2735 72.7806 98.4007 72.9079 98.528 73.0192C102.228 77.1923 107.641 81.7191 114.067 81.7827H114.321C118.368 81.8074 122.279 80.3279 125.296 77.6315C125.614 77.2975 125.948 76.9636 126.298 76.6295C127.443 75.4685 128.651 74.2597 129.892 73.0191L145.797 57.1144L145.813 57.0985H145.829C145.862 57.0531 145.899 57.0106 145.94 56.9712C148.787 54.1084 151.475 51.4364 153.781 49.1302C151.261 50.0288 148.614 50.5175 145.94 50.5775C143.573 50.6414 141.224 50.1455 139.085 49.1302C137.741 48.4926 136.498 47.6621 135.395 46.665C134.994 46.3034 134.611 45.9212 134.25 45.5198L114.067 25.3367L114.035 25.3049L106.067 17.3367C103.315 14.5851 100.643 11.9132 98.1462 9.41611L94.0905 5.3604C93.6292 4.89916 93.184 4.45382 92.7386 4.00849C89.8364 1.42067 86.0821 -0.00630931 82.1937 0.000512629H82.1778C80.0913 -0.00170934 78.025 0.408894 76.0979 1.20868C74.1707 2.00847 72.4209 3.18162 70.9491 4.66059L70.9014 4.7083C69.454 6.15563 67.9113 7.6984 66.3208 9.28887V9.40019H66.2095L58.273 17.3367C55.6487 19.9609 53.0403 22.5693 50.5592 25.0505L50.3048 25.305Z" fill="#00C6DE"/>
<path d="M114.006 25.305C116.885 28.1997 119.589 30.9035 121.927 33.2415C119.406 32.1455 116.692 31.5616 113.943 31.5237H113.657C111.226 31.5359 108.833 32.1246 106.674 33.2415C105.301 33.9403 104.037 34.835 102.921 35.8975C102.905 35.9135 102.889 35.9135 102.889 35.9453C102.794 36.0248 102.714 36.1043 102.619 36.1997C102.539 36.2793 102.444 36.3747 102.348 36.486C102.247 36.5638 102.156 36.6547 102.078 36.7564C100.79 38.0288 99.4218 39.3966 97.9904 40.8121C97.8631 40.9394 97.7359 41.0825 97.5928 41.2097C95.0957 43.7068 92.4396 46.3788 89.6881 49.1303C87.207 51.6114 84.6622 54.1562 82.1334 56.685L81.7039 57.1145C79.2546 59.5638 76.8053 62.0131 74.4195 64.3988L66.165 72.6534C66.0378 72.7806 65.9105 72.9079 65.7833 73.0192C62.0829 77.1923 56.6699 81.7191 50.2444 81.7827H49.9899C45.9437 81.8074 42.0326 80.3279 39.0157 77.6315C38.6976 77.2975 38.3636 76.9636 38.0136 76.6295C36.8685 75.4685 35.6597 74.2597 34.4192 73.0191L18.5144 57.1144L18.4985 57.0985H18.4826C18.4491 57.0531 18.4118 57.0106 18.3713 56.9712C15.5243 54.1084 12.8365 51.4364 10.5303 49.1302C13.0497 50.0288 15.697 50.5175 18.3713 50.5775C20.7383 50.6414 23.087 50.1455 25.2262 49.1302C26.5697 48.4926 27.8128 47.6621 28.9161 46.665C29.3175 46.3034 29.6997 45.9212 30.0613 45.5198L50.2444 25.3367L50.2762 25.3049L58.2445 17.3367C60.996 14.5851 63.6679 11.9132 66.165 9.41611L70.2207 5.3604C70.682 4.89916 71.1273 4.45382 71.5726 4.00849C74.4748 1.42067 78.2291 -0.00630931 82.1174 0.000512629H82.1334C84.2199 -0.00171196 86.2862 0.408894 88.2133 1.20868C90.1405 2.00847 91.8903 3.18162 93.3621 4.66059L93.4098 4.7083C94.8571 6.15563 96.3999 7.6984 97.9904 9.28887V9.40019H98.1017L106.038 17.3367C108.662 19.9609 111.271 22.5693 113.752 25.0505L114.006 25.305Z" fill="#00DEEA"/>
<path d="M35.4813 28.8028C32.3144 32.4657 28.8437 35.8546 25.1064 38.9333C22.2445 41.396 18.9128 43.2526 15.3129 44.3909C15.1277 44.4397 14.9425 44.4885 14.7546 44.5216C14.5107 44.5968 14.2623 44.6567 14.011 44.7011C12.4676 44.9748 10.8855 44.9415 9.35494 44.6034C7.82443 44.2652 6.37561 43.6287 5.09122 42.7303C3.80684 41.8319 2.71209 40.6891 1.8696 39.3673C1.02711 38.0456 0.45341 36.5708 0.181229 35.0271C-0.0909511 33.4835 -0.0562617 31.9014 0.283352 30.3712C0.622966 28.841 1.26084 27.3928 2.16049 26.1092C3.06013 24.8257 4.20391 23.732 5.52646 22.8908C6.84901 22.0496 8.32436 21.4772 9.86822 21.2065C10.3085 21.1326 10.7523 21.0813 11.1978 21.0528C14.1598 20.8851 17.1279 21.2477 19.9623 22.1238C20.7095 22.3311 21.4779 22.567 22.2701 22.8473C26.8431 24.4332 31.2646 26.4264 35.4813 28.8028Z" fill="#00C6DE"/>
<path d="M128.808 28.6136C131.946 32.3006 135.391 35.7158 139.105 38.823C141.948 41.3074 145.265 43.1894 148.856 44.3551C149.041 44.4053 149.226 44.4555 149.414 44.4901C149.657 44.5672 149.905 44.629 150.156 44.6753C151.697 44.9605 153.279 44.9393 154.812 44.6127C156.345 44.2861 157.799 43.6607 159.09 42.7721C160.381 41.8835 161.484 40.7491 162.337 39.4339C163.189 38.1187 163.774 36.6483 164.058 35.1069C164.342 33.5655 164.319 31.9832 163.992 30.4506C163.664 28.9179 163.037 27.4649 162.147 26.1746C161.258 24.8842 160.122 23.7819 158.806 22.9305C157.49 22.0792 156.02 21.4955 154.478 21.2129C154.038 21.1357 153.595 21.081 153.15 21.0491C150.189 20.8588 147.218 21.1988 144.377 22.0532C143.628 22.2548 142.858 22.4849 142.064 22.7591C137.479 24.3101 133.042 26.2694 128.808 28.6136Z" fill="#00DEEA"/>
</svg>
