<svg width="605" height="86" viewBox="0 0 605 86" fill="none" xmlns="http://www.w3.org/2000/svg">
<path d="M108.396 26.5076C111.411 29.5398 114.244 32.3722 116.693 34.8213C114.052 33.6732 111.209 33.0616 108.329 33.0219H108.029C105.483 33.0347 102.976 33.6513 100.715 34.8213C99.2764 35.5533 97.9519 36.4906 96.783 37.6037C96.7663 37.6203 96.7497 37.6203 96.7497 37.6537C96.6497 37.737 96.5664 37.8203 96.4664 37.9202C96.3831 38.0035 96.2831 38.1035 96.1832 38.2201C96.0767 38.3016 95.9814 38.3969 95.9 38.5034C94.5505 39.8363 93.1176 41.2691 91.6181 42.7519C91.4848 42.8852 91.3516 43.0351 91.2016 43.1684C88.5859 45.7842 85.8035 48.5832 82.9212 51.4655C80.3221 54.0646 77.6563 56.7304 75.0072 59.3795L74.5574 59.8293C71.9916 62.3951 69.4258 64.9608 66.9267 67.46L58.2797 76.107C58.1464 76.2402 58.0131 76.3736 57.8799 76.4902C54.0035 80.8617 48.3332 85.6037 41.6022 85.6703H41.3356C37.097 85.6962 33 84.1464 29.8396 81.3217C29.5065 80.9719 29.1566 80.6221 28.79 80.2721C27.5904 79.0559 26.3242 77.7896 25.0246 76.4901L8.36374 59.8292L8.34706 59.8126H8.33044C8.29525 59.765 8.25624 59.7204 8.2138 59.6793C5.2315 56.6803 2.41583 53.8813 0 51.4655C2.63925 52.4068 5.4124 52.9187 8.2138 52.9816C10.6934 53.0485 13.1537 52.529 15.3946 51.4655C16.802 50.7975 18.1042 49.9275 19.26 48.883C19.6804 48.5043 20.0808 48.1038 20.4596 47.6834L41.6022 26.5408L41.6355 26.5075L49.9826 18.1604C52.865 15.278 55.6639 12.479 58.2797 9.86326L62.5283 5.61473C63.0114 5.13157 63.4779 4.66505 63.9444 4.19855C66.9846 1.4877 70.9174 -0.00712076 74.9906 2.5505e-05H75.0072C77.1929 -0.00230485 79.3575 0.427822 81.3763 1.26563C83.395 2.10344 85.2281 3.33237 86.7698 4.88165L86.8198 4.93163C88.3359 6.44777 89.952 8.06388 91.6181 9.72997V9.84658H91.7348L100.049 18.1604C102.798 20.9094 105.53 23.6418 108.129 26.2409L108.396 26.5076Z" fill="#00DEEA"/>
<path d="M116.644 34.7599C114.195 32.3107 111.362 29.4784 108.347 26.4461L108.08 26.1795C105.481 23.5804 102.749 20.848 99.9996 18.099L98.7201 16.8195C96.592 15.7996 94.368 14.9929 92.0809 14.4112C86.6326 13.0039 80.9362 12.8501 75.42 13.9614C69.2842 15.1703 63.5533 17.9096 58.7591 21.9253C57.2733 23.1473 55.8913 24.4903 54.6272 25.9405C52.3987 28.4488 50.5263 31.2519 49.0625 34.271C48.9774 34.4445 48.9048 34.6254 48.8223 34.8005H48.8084C48.6416 35.1216 48.5145 35.4647 48.3699 35.7975C48.2852 35.9925 48.1916 36.1824 48.1133 36.3812C48.0188 36.6092 47.9379 36.844 47.8479 37.0743C47.1413 38.8693 46.5781 40.7174 46.1636 42.6014C46.1293 42.7507 46.106 42.9034 46.0737 43.0534C46.0592 43.1021 46.0477 43.1477 46.0329 43.1965H46.0453L54.2366 43.1742L45.6765 56.1618L37.957 67.874L47.7134 59.2623L54.7213 53.0765L75.4263 34.8004L66.5763 34.8438L66.2427 34.843C68.9958 32.4402 72.0882 30.4566 75.4201 28.9561C78.7994 27.4119 82.3955 26.3949 86.0831 25.9405C87.6622 25.7251 89.2543 25.6193 90.848 25.624C91.2646 25.624 91.6645 25.6239 92.081 25.6573C93.2683 25.684 94.4532 25.7786 95.6298 25.9405C100.229 26.5094 104.678 27.9453 108.742 30.1724L116.644 34.7599Z" fill="#FCAF08"/>
<path d="M434.291 26.5076C437.306 29.5398 440.139 32.3722 442.588 34.8213C439.947 33.6732 437.104 33.0616 434.224 33.0219H433.924C431.378 33.0347 428.871 33.6513 426.61 34.8213C425.171 35.5533 423.847 36.4906 422.678 37.6037C422.661 37.6203 422.645 37.6203 422.645 37.6537C422.545 37.737 422.461 37.8203 422.361 37.9202C422.278 38.0035 422.178 38.1035 422.078 38.2201C421.972 38.3016 421.876 38.3969 421.795 38.5034C420.445 39.8363 419.013 41.2691 417.513 42.7519C417.38 42.8852 417.247 43.0351 417.097 43.1684C414.481 45.7842 411.699 48.5832 408.816 51.4655C406.217 54.0646 403.551 56.7304 400.902 59.3795L400.452 59.8293C397.887 62.3951 395.321 64.9608 392.822 67.46L384.175 76.107C384.041 76.2402 383.908 76.3736 383.775 76.4902C379.899 80.8617 374.228 85.6037 367.497 85.6703H367.231C362.992 85.6962 358.895 84.1464 355.735 81.3217C355.402 80.9719 355.052 80.6221 354.685 80.2721C353.485 79.0559 352.219 77.7896 350.92 76.4901L334.259 59.8292L334.242 59.8126H334.225C334.19 59.765 334.151 59.7204 334.109 59.6793C331.127 56.6803 328.311 53.8813 325.895 51.4655C328.534 52.4068 331.307 52.9187 334.109 52.9816C336.588 53.0485 339.049 52.529 341.29 51.4655C342.697 50.7975 343.999 49.9275 345.155 48.883C345.575 48.5043 345.976 48.1038 346.355 47.6834L367.497 26.5408L367.531 26.5075L375.878 18.1604C378.76 15.278 381.559 12.479 384.175 9.86326L388.423 5.61473C388.906 5.13157 389.373 4.66505 389.839 4.19855C392.88 1.4877 396.812 -0.00712076 400.886 2.5505e-05H400.902C403.088 -0.00230485 405.253 0.427822 407.271 1.26563C409.29 2.10344 411.123 3.33237 412.665 4.88165L412.715 4.93163C414.231 6.44777 415.847 8.06388 417.513 9.72997V9.84658H417.63L425.944 18.1604C428.693 20.9094 431.425 23.6418 434.024 26.2409L434.291 26.5076Z" fill="#00DEEA"/>
<path d="M442.538 34.7599C440.089 32.3107 437.257 29.4784 434.241 26.4461L433.975 26.1795C431.376 23.5804 428.643 20.848 425.894 18.099L424.615 16.8195C422.486 15.7996 420.263 14.9929 417.975 14.4112C412.527 13.0039 406.831 12.8501 401.315 13.9614C395.179 15.1703 389.448 17.9096 384.654 21.9253C383.168 23.1473 381.786 24.4903 380.522 25.9405C378.293 28.4488 376.421 31.2519 374.957 34.271C374.872 34.4445 374.799 34.6254 374.717 34.8005H374.703C374.536 35.1216 374.409 35.4647 374.264 35.7975C374.18 35.9925 374.086 36.1824 374.008 36.3812C373.913 36.6092 373.832 36.844 373.742 37.0743C373.036 38.8693 372.473 40.7174 372.058 42.6014C372.024 42.7507 372 42.9034 371.968 43.0534C371.954 43.1021 371.942 43.1477 371.927 43.1965H371.94L380.131 43.1742L371.571 56.1618L363.852 67.874L373.608 59.2623L380.616 53.0765L401.321 34.8004L392.471 34.8438L392.137 34.843C394.89 32.4402 397.983 30.4566 401.315 28.9561C404.694 27.4119 408.29 26.3949 411.978 25.9405C413.557 25.7251 415.149 25.6193 416.743 25.624C417.159 25.624 417.559 25.6239 417.976 25.6573C419.163 25.684 420.348 25.7786 421.524 25.9405C426.123 26.5094 430.573 27.9453 434.636 30.1724L442.538 34.7599Z" fill="#FCAF08"/>
<path d="M189.175 26.5076C192.191 29.5398 195.023 32.3722 197.472 34.8213C194.831 33.6732 191.988 33.0616 189.109 33.0219H188.809C186.263 33.0347 183.756 33.6513 181.495 34.8213C180.056 35.5533 178.732 36.4906 177.563 37.6037C177.546 37.6203 177.529 37.6203 177.529 37.6537C177.43 37.737 177.346 37.8203 177.246 37.9202C177.163 38.0035 177.063 38.1035 176.963 38.2201C176.856 38.3016 176.761 38.3969 176.68 38.5034C175.33 39.8363 173.897 41.2691 172.398 42.7519C172.265 42.8852 172.131 43.0351 171.981 43.1684C169.366 45.7842 166.583 48.5832 163.701 51.4655C161.102 54.0646 158.436 56.7304 155.787 59.3795L155.337 59.8293C152.771 62.3951 150.206 64.9608 147.706 67.46L139.059 76.107C138.926 76.2402 138.793 76.3736 138.66 76.4902C134.783 80.8617 129.113 85.6037 122.382 85.6703H122.115C117.877 85.6962 113.78 84.1464 110.619 81.3217C110.286 80.9719 109.936 80.6221 109.57 80.2721C108.37 79.0559 107.104 77.7896 105.804 76.4901L89.1435 59.8292L89.1268 59.8126H89.1102C89.075 59.765 89.036 59.7204 88.9936 59.6793C86.0113 56.6803 83.1956 53.8813 80.7798 51.4655C83.419 52.4068 86.1922 52.9187 88.9936 52.9816C91.4732 53.0485 93.9335 52.529 96.1744 51.4655C97.5818 50.7975 98.884 49.9275 100.04 48.883C100.46 48.5043 100.861 48.1038 101.239 47.6834L122.382 26.5408L122.415 26.5075L130.762 18.1604C133.645 15.278 136.444 12.479 139.059 9.86326L143.308 5.61473C143.791 5.13157 144.258 4.66505 144.724 4.19855C147.764 1.4877 151.697 -0.00712076 155.77 2.5505e-05H155.787C157.973 -0.00230485 160.137 0.427822 162.156 1.26563C164.175 2.10344 166.008 3.33237 167.55 4.88165L167.6 4.93163C169.116 6.44777 170.732 8.06388 172.398 9.72997V9.84658H172.515L180.828 18.1604C183.577 20.9094 186.31 23.6418 188.909 26.2409L189.175 26.5076Z" fill="#00C1CB"/>
<path d="M515.072 26.5076C518.088 29.5398 520.92 32.3722 523.369 34.8213C520.728 33.6732 517.885 33.0616 515.006 33.0219H514.706C512.16 33.0347 509.653 33.6513 507.392 34.8213C505.953 35.5533 504.629 36.4906 503.46 37.6037C503.443 37.6203 503.426 37.6203 503.426 37.6537C503.326 37.737 503.243 37.8203 503.143 37.9202C503.06 38.0035 502.96 38.1035 502.86 38.2201C502.753 38.3016 502.658 38.3969 502.577 38.5034C501.227 39.8363 499.794 41.2691 498.295 42.7519C498.162 42.8852 498.028 43.0351 497.878 43.1684C495.263 45.7842 492.48 48.5832 489.598 51.4655C486.999 54.0646 484.333 56.7304 481.684 59.3795L481.234 59.8293C478.668 62.3951 476.103 64.9608 473.603 67.46L464.956 76.107C464.823 76.2402 464.69 76.3736 464.557 76.4902C460.68 80.8617 455.01 85.6037 448.279 85.6703H448.012C443.774 85.6962 439.677 84.1464 436.516 81.3217C436.183 80.9719 435.833 80.6221 435.467 80.2721C434.267 79.0559 433.001 77.7896 431.701 76.4901L415.04 59.8292L415.024 59.8126H415.007C414.972 59.765 414.933 59.7204 414.891 59.6793C411.908 56.6803 409.093 53.8813 406.677 51.4655C409.316 52.4068 412.089 52.9187 414.891 52.9816C417.37 53.0485 419.83 52.529 422.071 51.4655C423.479 50.7975 424.781 49.9275 425.937 48.883C426.357 48.5043 426.758 48.1038 427.136 47.6834L448.279 26.5408L448.312 26.5075L456.659 18.1604C459.542 15.278 462.341 12.479 464.956 9.86326L469.205 5.61473C469.688 5.13157 470.155 4.66505 470.621 4.19855C473.661 1.4877 477.594 -0.00712076 481.667 2.5505e-05H481.684C483.87 -0.00230485 486.034 0.427822 488.053 1.26563C490.072 2.10344 491.905 3.33237 493.447 4.88165L493.497 4.93163C495.013 6.44777 496.629 8.06388 498.295 9.72997V9.84658H498.412L506.725 18.1604C509.474 20.9094 512.207 23.6418 514.806 26.2409L515.072 26.5076Z" fill="#00C1CB"/>
<path d="M351.898 26.5076C354.914 29.5398 357.746 32.3722 360.196 34.8213C357.554 33.6732 354.711 33.0616 351.832 33.0219H351.532C348.986 33.0347 346.479 33.6513 344.218 34.8213C342.779 35.5533 341.455 36.4906 340.286 37.6037C340.269 37.6203 340.253 37.6203 340.253 37.6537C340.153 37.737 340.069 37.8203 339.969 37.9202C339.886 38.0035 339.786 38.1035 339.686 38.2201C339.58 38.3016 339.484 38.3969 339.403 38.5034C338.053 39.8363 336.621 41.2691 335.121 42.7519C334.988 42.8852 334.854 43.0351 334.705 43.1684C332.089 45.7842 329.306 48.5832 326.424 51.4655C323.825 54.0646 321.159 56.7304 318.51 59.3795L318.06 59.8293C315.495 62.3951 312.929 64.9608 310.43 67.46L301.783 76.107C301.649 76.2402 301.516 76.3736 301.383 76.4902C297.506 80.8617 291.836 85.6037 285.105 85.6703H284.839C280.6 85.6962 276.503 84.1464 273.343 81.3217C273.009 80.9719 272.66 80.6221 272.293 80.2721C271.093 79.0559 269.827 77.7896 268.528 76.4901L251.867 59.8292L251.85 59.8126H251.833C251.798 59.765 251.759 59.7204 251.717 59.6793C248.734 56.6803 245.919 53.8813 243.503 51.4655C246.142 52.4068 248.915 52.9187 251.717 52.9816C254.196 53.0485 256.657 52.529 258.898 51.4655C260.305 50.7975 261.607 49.9275 262.763 48.883C263.183 48.5043 263.584 48.1038 263.962 47.6834L285.105 26.5408L285.138 26.5075L293.486 18.1604C296.368 15.278 299.167 12.479 301.783 9.86326L306.031 5.61473C306.514 5.13157 306.981 4.66505 307.447 4.19855C310.487 1.4877 314.42 -0.00712076 318.493 2.5505e-05H318.51C320.696 -0.00230485 322.86 0.427822 324.879 1.26563C326.898 2.10344 328.731 3.33237 330.273 4.88165L330.323 4.93163C331.839 6.44777 333.455 8.06388 335.121 9.72997V9.84658H335.238L343.551 18.1604C346.3 20.9094 349.033 23.6418 351.632 26.2409L351.898 26.5076Z" fill="#00C1CB"/>
<path d="M270.369 26.5076C273.384 29.5398 276.217 32.3722 278.666 34.8213C276.025 33.6732 273.182 33.0616 270.302 33.0219H270.002C267.456 33.0347 264.949 33.6513 262.688 34.8213C261.25 35.5533 259.925 36.4906 258.756 37.6037C258.739 37.6203 258.723 37.6203 258.723 37.6537C258.623 37.737 258.54 37.8203 258.44 37.9202C258.356 38.0035 258.256 38.1035 258.156 38.2201C258.05 38.3016 257.955 38.3969 257.873 38.5034C256.524 39.8363 255.091 41.2691 253.591 42.7519C253.458 42.8852 253.325 43.0351 253.175 43.1684C250.559 45.7842 247.777 48.5832 244.894 51.4655C242.295 54.0646 239.629 56.7304 236.98 59.3795L236.531 59.8293C233.965 62.3951 231.399 64.9608 228.9 67.46L220.253 76.107C220.12 76.2402 219.986 76.3736 219.853 76.4902C215.977 80.8617 210.306 85.6037 203.575 85.6703H203.309C199.07 85.6962 194.973 84.1464 191.813 81.3217C191.48 80.9719 191.13 80.6221 190.763 80.2721C189.564 79.0559 188.297 77.7896 186.998 76.4901L170.337 59.8292L170.32 59.8126H170.304C170.268 59.765 170.229 59.7204 170.187 59.6793C167.205 56.6803 164.389 53.8813 161.973 51.4655C164.612 52.4068 167.386 52.9187 170.187 52.9816C172.667 53.0485 175.127 52.529 177.368 51.4655C178.775 50.7975 180.077 49.9275 181.233 48.883C181.654 48.5043 182.054 48.1038 182.433 47.6834L203.575 26.5408L203.609 26.5075L211.956 18.1604C214.838 15.278 217.637 12.479 220.253 9.86326L224.501 5.61473C224.985 5.13157 225.451 4.66505 225.918 4.19855C228.958 1.4877 232.891 -0.00712076 236.964 2.5505e-05H236.98C239.166 -0.00230485 241.331 0.427822 243.349 1.26563C245.368 2.10344 247.201 3.33237 248.743 4.88165L248.793 4.93163C250.309 6.44777 251.925 8.06388 253.591 9.72997V9.84658H253.708L262.022 18.1604C264.771 20.9094 267.503 23.6418 270.102 26.2409L270.369 26.5076Z" fill="#00DEEA"/>
<path d="M278.616 34.7599C276.167 32.3107 273.334 29.4784 270.319 26.4461L270.052 26.1795C267.453 23.5804 264.721 20.848 261.972 18.099L260.692 16.8195C258.564 15.7996 256.34 14.9929 254.053 14.4112C248.605 13.0039 242.908 12.8501 237.392 13.9614C231.256 15.1703 225.525 17.9096 220.731 21.9253C219.245 23.1473 217.863 24.4903 216.599 25.9405C214.371 28.4488 212.498 31.2519 211.035 34.271C210.95 34.4445 210.877 34.6254 210.794 34.8005H210.781C210.614 35.1216 210.487 35.4647 210.342 35.7975C210.257 35.9925 210.164 36.1824 210.085 36.3812C209.991 36.6092 209.91 36.844 209.82 37.0743C209.113 38.8693 208.55 40.7174 208.136 42.6014C208.102 42.7507 208.078 42.9034 208.046 43.0534C208.031 43.1021 208.02 43.1477 208.005 43.1965H208.018L216.209 43.1742L207.649 56.1618L199.929 67.874L209.686 59.2623L216.693 53.0765L237.398 34.8004L228.549 34.8438L228.215 34.843C230.968 32.4402 234.06 30.4566 237.392 28.9561C240.772 27.4119 244.368 26.3949 248.055 25.9405C249.634 25.7251 251.226 25.6193 252.82 25.624C253.237 25.624 253.637 25.6239 254.053 25.6573C255.24 25.684 256.425 25.7786 257.602 25.9405C262.201 26.5094 266.65 27.9453 270.714 30.1724L278.616 34.7599Z" fill="#FCAF08"/>
<path d="M596.265 26.5076C599.281 29.5398 602.113 32.3722 604.562 34.8213C601.921 33.6732 599.078 33.0616 596.199 33.0219H595.899C593.353 33.0347 590.846 33.6513 588.585 34.8213C587.146 35.5533 585.822 36.4906 584.653 37.6037C584.636 37.6203 584.619 37.6203 584.619 37.6537C584.519 37.737 584.436 37.8203 584.336 37.9202C584.253 38.0035 584.153 38.1035 584.053 38.2201C583.946 38.3016 583.851 38.3969 583.77 38.5034C582.42 39.8363 580.987 41.2691 579.488 42.7519C579.354 42.8852 579.221 43.0351 579.071 43.1684C576.455 45.7842 573.673 48.5832 570.791 51.4655C568.192 54.0646 565.526 56.7304 562.877 59.3795L562.427 59.8293C559.861 62.3951 557.295 64.9608 554.796 67.46L546.149 76.107C546.016 76.2402 545.883 76.3736 545.749 76.4902C541.873 80.8617 536.203 85.6037 529.472 85.6703H529.205C524.967 85.6962 520.87 84.1464 517.709 81.3217C517.376 80.9719 517.026 80.6221 516.66 80.2721C515.46 79.0559 514.194 77.7896 512.894 76.4901L496.233 59.8292L496.217 59.8126H496.2C496.165 59.765 496.126 59.7204 496.083 59.6793C493.101 56.6803 490.285 53.8813 487.87 51.4655C490.509 52.4068 493.282 52.9187 496.083 52.9816C498.563 53.0485 501.023 52.529 503.264 51.4655C504.672 50.7975 505.974 49.9275 507.13 48.883C507.55 48.5043 507.95 48.1038 508.329 47.6834L529.472 26.5408L529.505 26.5075L537.852 18.1604C540.735 15.278 543.534 12.479 546.149 9.86326L550.398 5.61473C550.881 5.13157 551.348 4.66505 551.814 4.19855C554.854 1.4877 558.787 -0.00712076 562.86 2.5505e-05H562.877C565.063 -0.00230485 567.227 0.427822 569.246 1.26563C571.265 2.10344 573.098 3.33237 574.639 4.88165L574.689 4.93163C576.206 6.44777 577.822 8.06388 579.488 9.72997V9.84658H579.604L587.918 18.1604C590.667 20.9094 593.4 23.6418 595.999 26.2409L596.265 26.5076Z" fill="#00DEEA"/>
<path d="M604.513 34.7599C602.064 32.3107 599.232 29.4784 596.216 26.4461L595.95 26.1795C593.351 23.5804 590.618 20.848 587.869 18.099L586.59 16.8195C584.462 15.7996 582.238 14.9929 579.951 14.4112C574.502 13.0039 568.806 12.8501 563.29 13.9614C557.154 15.1703 551.423 17.9096 546.629 21.9253C545.143 23.1473 543.761 24.4903 542.497 25.9405C540.268 28.4488 538.396 31.2519 536.932 34.271C536.847 34.4445 536.774 34.6254 536.692 34.8005H536.678C536.511 35.1216 536.384 35.4647 536.24 35.7975C536.155 35.9925 536.061 36.1824 535.983 36.3812C535.888 36.6092 535.808 36.844 535.718 37.0743C535.011 38.8693 534.448 40.7174 534.033 42.6014C533.999 42.7507 533.976 42.9034 533.943 43.0534C533.929 43.1021 533.917 43.1477 533.903 43.1965H533.915L542.106 43.1742L533.546 56.1618L525.827 67.874L535.583 59.2623L542.591 53.0765L563.296 34.8004L554.446 34.8438L554.112 34.843C556.865 32.4402 559.958 30.4566 563.29 28.9561C566.669 27.4119 570.265 26.3949 573.953 25.9405C575.532 25.7251 577.124 25.6193 578.718 25.624C579.134 25.624 579.534 25.6239 579.951 25.6573C581.138 25.684 582.323 25.7786 583.499 25.9405C588.098 26.5094 592.548 27.9453 596.611 30.1724L604.513 34.7599Z" fill="#FCAF08"/>
</svg>
