<svg width="407" height="74" viewBox="0 0 407 74" fill="none" xmlns="http://www.w3.org/2000/svg">
<path d="M105.729 28.9313C102.438 25.6404 98.6321 21.8347 94.5801 17.7603L94.222 17.4021C90.7297 13.9098 87.0582 10.2384 83.3644 6.54464L81.6453 4.82547C78.7857 3.45495 75.7975 2.37101 72.7244 1.58949C65.4037 -0.301455 57.7497 -0.508124 50.3377 0.985036C42.0933 2.60939 34.3928 6.29021 27.9511 11.6859C25.9546 13.3279 24.0976 15.1324 22.3991 17.081C19.4048 20.4513 16.8888 24.2178 14.922 28.2744C14.8077 28.5076 14.7101 28.7505 14.5993 28.9858H14.5806C14.3565 29.4173 14.1857 29.8783 13.9914 30.3256C13.8776 30.5875 13.7519 30.8427 13.6466 31.1099C13.5197 31.4162 13.411 31.7317 13.29 32.0411C12.3406 34.453 11.5839 36.9362 11.0269 39.4677C10.9808 39.6682 10.9494 39.8735 10.9061 40.075C10.8866 40.1404 10.8711 40.2017 10.8513 40.2673H10.868L21.8743 40.2373L10.3724 57.6884L0 73.4257L13.1093 61.8543L22.5256 53.5427L50.3462 28.9858L38.4548 29.044L38.0065 29.0429C41.7058 25.8144 45.8609 23.1491 50.3378 21.133C54.8785 19.058 59.7104 17.6915 64.6653 17.081C66.7871 16.7915 68.9264 16.6494 71.0678 16.6557C71.6275 16.6557 72.1648 16.6556 72.7245 16.7004C74.3199 16.7363 75.912 16.8634 77.4929 17.081C83.6723 17.8453 89.6507 19.7748 95.1111 22.7672L105.729 28.9313Z" fill="#00DEEA"/>
<path d="M181.368 28.9313C178.077 25.6404 174.272 21.8347 170.22 17.7603L169.862 17.4021C166.369 13.9098 162.698 10.2384 159.004 6.54464L157.285 4.82547C154.425 3.45495 151.437 2.37101 148.364 1.58949C141.043 -0.301455 133.389 -0.508124 125.977 0.985036C117.733 2.60939 110.032 6.29021 103.591 11.6859C101.594 13.3279 99.7373 15.1324 98.0388 17.081C95.0445 20.4513 92.5285 24.2178 90.5617 28.2744C90.4473 28.5076 90.3497 28.7505 90.2389 28.9858H90.2202C89.9961 29.4173 89.8253 29.8783 89.631 30.3256C89.5172 30.5875 89.3915 30.8427 89.2863 31.1099C89.1594 31.4162 89.0506 31.7317 88.9297 32.0411C87.9802 34.453 87.2235 36.9362 86.6665 39.4677C86.6205 39.6682 86.5891 39.8735 86.5458 40.075C86.5262 40.1404 86.5108 40.2017 86.491 40.2673H86.5076L97.5139 40.2373L86.0121 57.6884L75.6396 73.4257L88.7489 61.8543L98.1653 53.5427L125.986 28.9858L114.094 29.044L113.646 29.0429C117.345 25.8144 121.501 23.1491 125.977 21.133C130.518 19.058 135.35 17.6915 140.305 17.081C142.427 16.7915 144.566 16.6494 146.707 16.6557C147.267 16.6557 147.804 16.6556 148.364 16.7004C149.96 16.7363 151.552 16.8634 153.133 17.081C159.312 17.8453 165.29 19.7748 170.751 22.7672L181.368 28.9313Z" fill="#00A1A9"/>
<path d="M256.107 28.9313C252.816 25.6404 249.01 21.8347 244.958 17.7603L244.6 17.4021C241.108 13.9098 237.436 10.2384 233.742 6.54464L232.023 4.82547C229.164 3.45495 226.175 2.37101 223.102 1.58949C215.782 -0.301455 208.128 -0.508124 200.716 0.985036C192.471 2.60939 184.771 6.29021 178.329 11.6859C176.333 13.3279 174.476 15.1324 172.777 17.081C169.783 20.4513 167.267 24.2178 165.3 28.2744C165.186 28.5076 165.088 28.7505 164.977 28.9858H164.958C164.734 29.4173 164.564 29.8783 164.369 30.3256C164.255 30.5875 164.13 30.8427 164.025 31.1099C163.898 31.4162 163.789 31.7317 163.668 32.0411C162.719 34.453 161.962 36.9362 161.405 39.4677C161.359 39.6682 161.327 39.8735 161.284 40.075C161.264 40.1404 161.249 40.2017 161.229 40.2673H161.246L172.252 40.2373L160.75 57.6884L150.378 73.4257L163.487 61.8543L172.904 53.5427L200.724 28.9858L188.833 29.044L188.384 29.0429C192.084 25.8144 196.239 23.1491 200.716 21.133C205.256 19.058 210.088 17.6915 215.043 17.081C217.165 16.7915 219.304 16.6494 221.446 16.6557C222.005 16.6557 222.543 16.6556 223.102 16.7004C224.698 16.7363 226.29 16.8634 227.871 17.081C234.05 17.8453 240.029 19.7748 245.489 22.7672L256.107 28.9313Z" fill="#FCAF08"/>
<path d="M331.746 28.9313C328.455 25.6404 324.65 21.8347 320.598 17.7603L320.24 17.4021C316.747 13.9098 313.076 10.2384 309.382 6.54464L307.663 4.82547C304.803 3.45495 301.815 2.37101 298.742 1.58949C291.421 -0.301455 283.767 -0.508124 276.355 0.985036C268.111 2.60939 260.41 6.29021 253.969 11.6859C251.972 13.3279 250.115 15.1324 248.417 17.081C245.422 20.4513 242.906 24.2178 240.94 28.2744C240.825 28.5076 240.728 28.7505 240.617 28.9858H240.598C240.374 29.4173 240.203 29.8783 240.009 30.3256C239.895 30.5875 239.769 30.8427 239.664 31.1099C239.537 31.4162 239.429 31.7317 239.308 32.0411C238.358 34.453 237.601 36.9362 237.044 39.4677C236.998 39.6682 236.967 39.8735 236.924 40.075C236.904 40.1404 236.889 40.2017 236.869 40.2673H236.886L247.892 40.2373L236.39 57.6884L226.018 73.4257L239.127 61.8543L248.543 53.5427L276.364 28.9858L264.472 29.044L264.024 29.0429C267.723 25.8144 271.878 23.1491 276.355 21.133C280.896 19.058 285.728 17.6915 290.683 17.081C292.805 16.7915 294.944 16.6494 297.085 16.6557C297.645 16.6557 298.182 16.6556 298.742 16.7004C300.337 16.7363 301.93 16.8634 303.51 17.081C309.69 17.8453 315.668 19.7748 321.129 22.7672L331.746 28.9313Z" fill="#00DEEA"/>
<path d="M406.484 28.9313C403.193 25.6404 399.387 21.8347 395.335 17.7603L394.977 17.4021C391.485 13.9098 387.814 10.2384 384.12 6.54464L382.401 4.82547C379.541 3.45495 376.553 2.37101 373.48 1.58949C366.159 -0.301455 358.505 -0.508124 351.093 0.985036C342.849 2.60939 335.148 6.29021 328.706 11.6859C326.71 13.3279 324.853 15.1324 323.155 17.081C320.16 20.4513 317.644 24.2178 315.677 28.2744C315.563 28.5076 315.465 28.7505 315.355 28.9858H315.336C315.112 29.4173 314.941 29.8783 314.747 30.3256C314.633 30.5875 314.507 30.8427 314.402 31.1099C314.275 31.4162 314.166 31.7317 314.045 32.0411C313.096 34.453 312.339 36.9362 311.782 39.4677C311.736 39.6682 311.705 39.8735 311.661 40.075C311.642 40.1404 311.627 40.2017 311.607 40.2673H311.623L322.63 40.2373L311.128 57.6884L300.755 73.4257L313.865 61.8543L323.281 53.5427L351.102 28.9858L339.21 29.044L338.762 29.0429C342.461 25.8144 346.616 23.1491 351.093 21.133C355.634 19.058 360.466 17.6915 365.421 17.081C367.542 16.7915 369.682 16.6494 371.823 16.6557C372.383 16.6557 372.92 16.6556 373.48 16.7004C375.075 16.7363 376.667 16.8634 378.248 17.081C384.428 17.8453 390.406 19.7748 395.867 22.7672L406.484 28.9313Z" fill="#00A1A9"/>
</svg>
