<svg width="521" height="94" viewBox="0 0 521 94" fill="none" xmlns="http://www.w3.org/2000/svg">
<path d="M86.7031 57.7312C88.5488 59.587 90.2823 61.3205 91.7813 62.8195C90.1648 62.1168 88.4248 61.7425 86.6623 61.7182L86.4788 61.7182C84.9205 61.726 83.3863 62.1034 82.0023 62.8195C81.1218 63.2675 80.3112 63.8412 79.5958 64.5224C79.5856 64.5326 79.5754 64.5326 79.5754 64.553C79.5142 64.604 79.4632 64.655 79.402 64.7161C79.351 64.7671 79.2898 64.8283 79.2287 64.8997C79.1635 64.9496 79.1052 65.0078 79.0553 65.073C78.2294 65.8888 77.3524 66.7658 76.4347 67.6733C76.3531 67.7549 76.2715 67.8467 76.1798 67.9282C74.5788 69.5292 72.8759 71.2423 71.1118 73.0064C69.5211 74.5971 67.8895 76.2286 66.2682 77.85L65.9929 78.1253C64.4225 79.6956 62.8522 81.266 61.3226 82.7955L56.0303 88.0878C55.9488 88.1694 55.8672 88.251 55.7856 88.3224C53.4132 90.9979 49.9427 93.9002 45.8231 93.941H45.6599C43.0658 93.9568 40.5582 93.0082 38.6239 91.2794C38.4201 91.0653 38.2059 90.8512 37.9816 90.6371C37.2474 89.8927 36.4724 89.1177 35.6771 88.3223L25.48 78.1252L25.4698 78.115H25.4596C25.4381 78.086 25.4142 78.0587 25.3882 78.0335C23.563 76.198 21.8396 74.4849 20.3611 73.0063C21.9764 73.5825 23.6737 73.8957 25.3882 73.9342C26.9058 73.9752 28.4117 73.6573 29.7832 73.0063C30.6445 72.5975 31.4415 72.065 32.1489 71.4258C32.4062 71.1939 32.6512 70.9489 32.8831 70.6916L45.8231 57.7515L45.8435 57.7311L50.9523 52.6224C52.7163 50.8583 54.4295 49.1452 56.0304 47.5442L58.6306 44.944C58.9264 44.6483 59.2118 44.3628 59.4974 44.0772C61.3581 42.4181 63.7651 41.5032 66.2581 41.5076H66.2683C67.606 41.5062 68.9308 41.7694 70.1663 42.2822C71.4019 42.795 72.5238 43.5471 73.4674 44.4953L73.498 44.5259C74.4259 45.4538 75.415 46.443 76.4347 47.4627V47.534H76.5061L81.5945 52.6224C83.277 54.3049 84.9493 55.9772 86.54 57.568L86.7031 57.7312Z" fill="#00C6DE"/>
<path d="M168.09 57.0442C169.936 58.9 171.669 60.6335 173.168 62.1325C171.552 61.4298 169.812 61.0554 168.05 61.0312L167.866 61.0312C166.308 61.039 164.774 61.4164 163.389 62.1325C162.509 62.5805 161.698 63.1541 160.983 63.8354C160.973 63.8456 160.963 63.8456 160.963 63.866C160.901 63.917 160.85 63.968 160.789 64.0291C160.738 64.0801 160.677 64.1413 160.616 64.2127C160.551 64.2625 160.492 64.3208 160.443 64.386C159.617 65.2018 158.74 66.0788 157.822 66.9863C157.74 67.0679 157.659 67.1596 157.567 67.2412C155.966 68.8422 154.263 70.5553 152.499 72.3194C150.908 73.9101 149.277 75.5416 147.655 77.163L147.38 77.4383C145.81 79.0086 144.239 80.579 142.71 82.1085L137.418 87.4008C137.336 87.4824 137.254 87.564 137.173 87.6353C134.8 90.3109 131.33 93.2132 127.21 93.2539H127.047C124.453 93.2698 121.945 92.3212 120.011 90.5924C119.807 90.3783 119.593 90.1642 119.369 89.95C118.635 89.2057 117.86 88.4307 117.064 87.6353L106.867 77.4382L106.857 77.428H106.847C106.825 77.3989 106.801 77.3717 106.775 77.3465C104.95 75.511 103.227 73.7979 101.748 72.3193C103.364 72.8954 105.061 73.2087 106.775 73.2472C108.293 73.2882 109.799 72.9702 111.17 72.3193C112.032 71.9105 112.829 71.378 113.536 70.7388C113.793 70.5069 114.038 70.2619 114.27 70.0046L127.21 57.0645L127.231 57.0441L132.339 51.9354C134.104 50.1713 135.817 48.4582 137.418 46.8572L140.018 44.257C140.314 43.9613 140.599 43.6757 140.885 43.3902C142.745 41.7311 145.152 40.8162 147.645 40.8206H147.655C148.993 40.8191 150.318 41.0824 151.554 41.5952C152.789 42.1079 153.911 42.8601 154.855 43.8083L154.885 43.8389C155.813 44.7668 156.802 45.7559 157.822 46.7757V46.847H157.893L162.982 51.9354C164.664 53.6179 166.337 55.2902 167.927 56.8809L168.09 57.0442Z" fill="#00C6DE"/>
<path d="M249.883 56.737C251.728 58.5929 253.462 60.3264 254.961 61.8253C253.344 61.1227 251.604 60.7483 249.842 60.7241L249.658 60.7241C248.1 60.7318 246.566 61.1093 245.182 61.8253C244.302 62.2734 243.491 62.847 242.775 63.5283C242.765 63.5385 242.755 63.5385 242.755 63.5588C242.694 63.6098 242.643 63.6608 242.582 63.722C242.531 63.773 242.47 63.8342 242.408 63.9056C242.343 63.9554 242.285 64.0137 242.235 64.0789C241.409 64.8947 240.532 65.7716 239.614 66.6792C239.533 66.7607 239.451 66.8525 239.359 66.9341C237.759 68.535 236.056 70.2481 234.291 72.0122C232.701 73.603 231.069 75.2345 229.448 76.8558L229.173 77.1312C227.602 78.7015 226.032 80.2718 224.502 81.8014L219.21 87.0937C219.128 87.1753 219.047 87.2568 218.965 87.3282C216.593 90.0037 213.122 92.906 209.003 92.9468H208.84C206.245 92.9627 203.738 92.0141 201.804 90.2853C201.6 90.0712 201.386 89.8571 201.161 89.6429C200.427 88.8985 199.652 88.1235 198.857 87.3282L188.66 77.1311L188.649 77.1209H188.639C188.618 77.0918 188.594 77.0645 188.568 77.0393C186.743 75.2038 185.019 73.4907 183.541 72.0122C185.156 72.5883 186.853 72.9016 188.568 72.9401C190.086 72.981 191.591 72.6631 192.963 72.0122C193.824 71.6034 194.621 71.0709 195.329 70.4316C195.586 70.1998 195.831 69.9547 196.063 69.6974L209.003 56.7574L209.023 56.737L214.132 51.6282C215.896 49.8641 217.609 48.151 219.21 46.5501L221.81 43.9498C222.106 43.6541 222.392 43.3686 222.677 43.0831C224.538 41.424 226.945 40.5091 229.438 40.5134H229.448C230.786 40.512 232.11 40.7753 233.346 41.288C234.582 41.8008 235.703 42.553 236.647 43.5012L236.678 43.5318C237.606 44.4597 238.595 45.4488 239.614 46.4685V46.5399H239.686L244.774 51.6282C246.457 53.3108 248.129 54.9831 249.72 56.5738L249.883 56.737Z" fill="#00C6DE"/>
<path d="M66.342 37.8523C68.1877 39.7081 69.9212 41.4416 71.4202 42.9406C69.8037 42.2379 68.0637 41.8636 66.3013 41.8393H66.1178C64.5595 41.8471 63.0253 42.2245 61.6412 42.9406C60.7608 43.3886 59.9502 43.9622 59.2347 44.6435C59.2245 44.6537 59.2144 44.6537 59.2144 44.6741C59.1532 44.7251 59.1022 44.7761 59.041 44.8372C58.99 44.8882 58.9288 44.9494 58.8676 45.0208C58.8024 45.0706 58.7442 45.1289 58.6943 45.1941C57.8683 46.0099 56.9914 46.8869 56.0737 47.7944C55.9921 47.876 55.9105 47.9677 55.8187 48.0493C54.2178 49.6503 52.5149 51.3634 50.7508 53.1275C49.16 54.7182 47.5285 56.3497 45.9072 57.9711L45.6319 58.2464C44.0615 59.8167 42.4912 61.3871 40.9616 62.9166L35.6693 68.2089C35.5877 68.2905 35.5062 68.3721 35.4246 68.4435C33.0521 71.119 29.5817 74.0213 25.4621 74.062H25.2989C22.7047 74.0779 20.1972 73.1293 18.2629 71.4005C18.0591 71.1864 17.8449 70.9723 17.6205 70.7581C16.8863 70.0138 16.1114 69.2388 15.316 68.4434L5.11892 58.2463L5.10871 58.2361H5.09853C5.077 58.207 5.05312 58.1798 5.02715 58.1546C3.20187 56.3191 1.47857 54.606 0 53.1274C1.61532 53.7035 3.31259 54.0168 5.02715 54.0553C6.54474 54.0963 8.05056 53.7784 9.42208 53.1274C10.2834 52.7186 11.0804 52.1861 11.7878 51.5469C12.0451 51.315 12.2902 51.07 12.522 50.8127L25.4621 37.8726L25.4825 37.8522L30.5912 32.7435C32.3553 30.9794 34.0684 29.2663 35.6693 27.6653L38.2696 25.0651C38.5653 24.7694 38.8508 24.4838 39.1363 24.1983C40.997 22.5392 43.404 21.6243 45.897 21.6287H45.9072C47.2449 21.6273 48.5697 21.8905 49.8053 22.4033C51.0408 22.916 52.1627 23.6682 53.1063 24.6164L53.1369 24.647C54.0648 25.5749 55.0539 26.5641 56.0737 27.5838V27.6551H56.145L61.2334 32.7435C62.9159 34.426 64.5882 36.0983 66.1789 37.6891L66.342 37.8523Z" fill="#00DEEA"/>
<path d="M147.729 37.165C149.575 39.0209 151.308 40.7544 152.807 42.2533C151.191 41.5507 149.451 41.1763 147.689 41.152H147.505C145.947 41.1598 144.412 41.5373 143.028 42.2533C142.148 42.7014 141.337 43.275 140.622 43.9562C140.612 43.9664 140.602 43.9664 140.602 43.9868C140.54 44.0378 140.489 44.0888 140.428 44.15C140.377 44.201 140.316 44.2622 140.255 44.3335C140.19 44.3834 140.131 44.4417 140.082 44.5069C139.256 45.3227 138.379 46.1996 137.461 47.1071C137.379 47.1887 137.298 47.2805 137.206 47.3621C135.605 48.963 133.902 50.6761 132.138 52.4402C130.547 54.0309 128.916 55.6625 127.294 57.2838L127.019 57.5591C125.449 59.1295 123.878 60.6998 122.349 62.2294L117.057 67.5217C116.975 67.6032 116.893 67.6848 116.812 67.7562C114.439 70.4317 110.969 73.334 106.849 73.3748H106.686C104.092 73.3906 101.584 72.4421 99.6502 70.7133C99.4463 70.4992 99.2321 70.2851 99.0077 70.0709C98.2735 69.3265 97.4986 68.5515 96.7032 67.7561L86.5061 57.5591L86.4959 57.5489H86.4857C86.4642 57.5198 86.4403 57.4925 86.4144 57.4673C84.5891 55.6318 82.8658 53.9187 81.3872 52.4402C83.0025 53.0163 84.6998 53.3296 86.4144 53.3681C87.9319 53.409 89.4378 53.0911 90.8093 52.4402C91.6706 52.0314 92.4676 51.4989 93.175 50.8596C93.4323 50.6278 93.6774 50.3827 93.9092 50.1254L106.849 37.1853L106.87 37.1649L111.978 32.0562C113.742 30.2921 115.456 28.579 117.057 26.9781L119.657 24.3778C119.953 24.0821 120.238 23.7966 120.524 23.5111C122.384 21.8519 124.791 20.937 127.284 20.9414H127.294C128.632 20.94 129.957 21.2032 131.192 21.716C132.428 22.2288 133.55 22.9809 134.494 23.9292L134.524 23.9597C135.452 24.8877 136.441 25.8768 137.461 26.8965V26.9679H137.532L142.621 32.0562C144.303 33.7387 145.975 35.4111 147.566 37.0018L147.729 37.165Z" fill="#00DEEA"/>
<path d="M229.521 36.8581C231.367 38.714 233.1 40.4475 234.599 41.9464C232.983 41.2438 231.243 40.8694 229.481 40.8452H229.297C227.739 40.8529 226.204 41.2304 224.82 41.9464C223.94 42.3945 223.129 42.9681 222.414 43.6494C222.404 43.6595 222.394 43.6595 222.394 43.6799C222.332 43.7309 222.281 43.7819 222.22 43.8431C222.169 43.8941 222.108 43.9553 222.047 44.0267C221.982 44.0765 221.923 44.1348 221.874 44.2C221.048 45.0158 220.171 45.8927 219.253 46.8003C219.171 46.8818 219.09 46.9736 218.998 47.0552C217.397 48.6561 215.694 50.3692 213.93 52.1333C212.339 53.7241 210.708 55.3556 209.086 56.9769L208.811 57.2522C207.241 58.8226 205.67 60.3929 204.141 61.9225L198.849 67.2148C198.767 67.2963 198.685 67.3779 198.604 67.4493C196.231 70.1248 192.761 73.0271 188.641 73.0679H188.478C185.884 73.0837 183.376 72.1352 181.442 70.4064C181.238 70.1923 181.024 69.9782 180.8 69.764C180.066 69.0196 179.291 68.2446 178.495 67.4492L168.298 57.2522L168.288 57.242H168.278C168.256 57.2129 168.232 57.1856 168.206 57.1604C166.381 55.3249 164.658 53.6118 163.179 52.1333C164.795 52.7094 166.492 53.0227 168.206 53.0612C169.724 53.1021 171.23 52.7842 172.601 52.1333C173.463 51.7245 174.26 51.192 174.967 50.5527C175.224 50.3209 175.469 50.0758 175.701 49.8185L188.641 36.8785L188.662 36.8581L193.77 31.7493C195.534 29.9852 197.248 28.2721 198.849 26.6712L201.449 24.0709C201.744 23.7752 202.03 23.4897 202.316 23.2042C204.176 21.545 206.583 20.6302 209.076 20.6345H209.086C210.424 20.6331 211.749 20.8964 212.984 21.4091C214.22 21.9219 215.342 22.6741 216.285 23.6223L216.316 23.6529C217.244 24.5808 218.233 25.5699 219.253 26.5896V26.661H219.324L224.413 31.7493C226.095 33.4318 227.767 35.1042 229.358 36.6949L229.521 36.8581Z" fill="#00DEEA"/>
<path d="M45.7776 17.9619C43.9319 19.8177 42.1984 21.5512 40.6994 23.0502C42.3159 22.3475 44.0559 21.9732 45.8183 21.9489H46.0019C47.5601 21.9567 49.0944 22.3341 50.4784 23.0502C51.3588 23.4982 52.1695 24.0719 52.8849 24.7531C52.8951 24.7633 52.9053 24.7633 52.9053 24.7837C52.9664 24.8347 53.0174 24.8857 53.0786 24.9469C53.1296 24.9978 53.1909 25.059 53.252 25.1304C53.3172 25.1803 53.3755 25.2386 53.4253 25.3038C54.2513 26.1195 55.1282 26.9965 56.046 27.904C56.1276 27.9856 56.2091 28.0774 56.3009 28.1589C57.9018 29.7599 59.6048 31.473 61.3688 33.2371C62.9596 34.8278 64.5911 36.4594 66.2125 38.0807L66.4878 38.356C68.0581 39.9264 69.6285 41.4967 71.158 43.0262L76.4503 48.3185C76.5319 48.4001 76.6135 48.4817 76.695 48.5531C79.0675 51.2286 82.5379 54.1309 86.6576 54.1717H86.8207C89.4149 54.1875 91.9224 53.239 93.8567 51.5102C94.0606 51.2961 94.2747 51.0819 94.4991 50.8678C95.2333 50.1234 96.0083 49.3484 96.8036 48.553L107.001 38.3559L107.011 38.3458H107.021C107.043 38.3167 107.067 38.2894 107.092 38.2642C108.918 36.4287 110.641 34.7156 112.12 33.237C110.504 33.8132 108.807 34.1264 107.092 34.165C105.575 34.2059 104.069 33.888 102.698 33.237C101.836 32.8282 101.039 32.2958 100.332 31.6565C100.075 31.4247 99.8295 31.1796 99.5976 30.9223L86.6576 17.9822L86.6372 17.9618L81.5284 12.8531C79.7643 11.089 78.0513 9.3759 76.4503 7.77496L73.85 5.1747C73.5543 4.87899 73.2688 4.59346 72.9833 4.30795C71.1226 2.64881 68.7156 1.73392 66.2227 1.7383H66.2125C64.8747 1.73687 63.5499 2.00012 62.3144 2.51289C61.0788 3.02567 59.9569 3.77781 59.0133 4.72603L58.9827 4.75662C58.0548 5.68455 57.0657 6.67367 56.046 7.69338V7.76475H55.9746L50.8863 12.8531C49.2038 14.5356 47.5314 16.2079 45.9407 17.7987L45.7776 17.9619Z" fill="#FCAF08"/>
<path d="M127.165 17.2746C125.319 19.1305 123.586 20.864 122.087 22.3629C123.703 21.6603 125.443 21.2859 127.206 21.2617H127.389C128.947 21.2694 130.482 21.6469 131.866 22.3629C132.746 22.811 133.557 23.3846 134.272 24.0659C134.282 24.0761 134.292 24.0761 134.292 24.0964C134.354 24.1474 134.405 24.1984 134.466 24.2596C134.517 24.3106 134.578 24.3718 134.639 24.4432C134.704 24.493 134.763 24.5513 134.813 24.6165C135.638 25.4323 136.515 26.3092 137.433 27.2168C137.515 27.2983 137.596 27.3901 137.688 27.4717C139.289 29.0726 140.992 30.7857 142.756 32.5498C144.347 34.1406 145.978 35.7721 147.6 37.3934L147.875 37.6688C149.445 39.2391 151.016 40.8094 152.545 42.339L157.838 47.6313C157.919 47.7128 158.001 47.7944 158.082 47.8658C160.455 50.5413 163.925 53.4436 168.045 53.4844H168.208C170.802 53.5003 173.31 52.5517 175.244 50.8229C175.448 50.6088 175.662 50.3947 175.886 50.1805C176.62 49.4361 177.395 48.6611 178.191 47.8658L188.388 37.6687L188.398 37.6585H188.408C188.43 37.6294 188.454 37.6021 188.48 37.5769C190.305 35.7414 192.028 34.0283 193.507 32.5498C191.892 33.1259 190.194 33.4392 188.48 33.4777C186.962 33.5186 185.456 33.2007 184.085 32.5498C183.223 32.141 182.426 31.6085 181.719 30.9692C181.462 30.7374 181.217 30.4923 180.985 30.235L168.045 17.295L168.024 17.2746L162.916 12.1658C161.152 10.4017 159.438 8.68864 157.838 7.0877L155.237 4.48745C154.942 4.19173 154.656 3.90621 154.37 3.62069C152.51 1.96155 150.103 1.04667 147.61 1.05104H147.6C146.262 1.04961 144.937 1.31287 143.702 1.82564C142.466 2.33841 141.344 3.09056 140.401 4.03877L140.37 4.06936C139.442 4.9973 138.453 5.98642 137.433 7.00612V7.07749H137.362L132.273 12.1658C130.591 13.8484 128.919 15.5207 127.328 17.1114L127.165 17.2746Z" fill="#FCAF08"/>
<path d="M208.957 16.9677C207.111 18.8236 205.378 20.5571 203.879 22.0561C205.495 21.3534 207.235 20.979 208.998 20.9548H209.181C210.739 20.9626 212.274 21.34 213.658 22.0561C214.538 22.5041 215.349 23.0777 216.064 23.759C216.074 23.7692 216.084 23.7692 216.084 23.7896C216.146 23.8405 216.197 23.8915 216.258 23.9527C216.309 24.0037 216.37 24.0649 216.431 24.1363C216.496 24.1861 216.555 24.2444 216.605 24.3096C217.43 25.1254 218.307 26.0023 219.225 26.9099C219.307 26.9915 219.388 27.0832 219.48 27.1648C221.081 28.7657 222.784 30.4788 224.548 32.2429C226.139 33.8337 227.77 35.4652 229.392 37.0865L229.667 37.3619C231.237 38.9322 232.808 40.5025 234.337 42.0321L239.63 47.3244C239.711 47.406 239.793 47.4876 239.874 47.5589C242.247 50.2345 245.717 53.1367 249.837 53.1775H250C252.594 53.1934 255.102 52.2448 257.036 50.516C257.24 50.3019 257.454 50.0878 257.678 49.8736C258.412 49.1292 259.187 48.3542 259.983 47.5589L270.18 37.3618L270.19 37.3516H270.2C270.222 37.3225 270.246 37.2952 270.272 37.27C272.097 35.4346 273.82 33.7215 275.299 32.2429C273.684 32.819 271.986 33.1323 270.272 33.1708C268.754 33.2118 267.248 32.8938 265.877 32.2429C265.015 31.8341 264.218 31.3016 263.511 30.6623C263.254 30.4305 263.009 30.1855 262.777 29.9282L249.837 16.9881L249.816 16.9677L244.708 11.859C242.944 10.0949 241.23 8.38176 239.63 6.78082L237.029 4.18056C236.734 3.88485 236.448 3.59932 236.162 3.31381C234.302 1.65467 231.895 0.739782 229.402 0.744156H229.392C228.054 0.74273 226.729 1.00598 225.494 1.51875C224.258 2.03153 223.136 2.78367 222.193 3.73189L222.162 3.76248C221.234 4.69041 220.245 5.67953 219.225 6.69924V6.77061H219.154L214.065 11.859C212.383 13.5415 210.711 15.2138 209.12 16.8045L208.957 16.9677Z" fill="#FCAF08"/>
<path d="M331.513 56.987C333.359 58.8429 335.092 60.5764 336.591 62.0753C334.975 61.3727 333.235 60.9983 331.472 60.9741L331.289 60.9741C329.731 60.9818 328.196 61.3593 326.812 62.0753C325.932 62.5234 325.121 63.097 324.406 63.7783C324.396 63.7885 324.385 63.7885 324.385 63.8088C324.324 63.8598 324.273 63.9108 324.212 63.972C324.161 64.023 324.1 64.0842 324.039 64.1556C323.974 64.2054 323.915 64.2637 323.865 64.3289C323.039 65.1447 322.162 66.0216 321.245 66.9292C321.163 67.0107 321.082 67.1025 320.99 67.1841C319.389 68.785 317.686 70.4981 315.922 72.2622C314.331 73.853 312.7 75.4845 311.078 77.1058L310.803 77.3812C309.233 78.9515 307.662 80.5218 306.133 82.0514L300.84 87.3437C300.759 87.4253 300.677 87.5068 300.596 87.5782C298.223 90.2537 294.753 93.156 290.633 93.1968H290.47C287.876 93.2127 285.368 92.2641 283.434 90.5353C283.23 90.3212 283.016 90.1071 282.792 89.8929C282.057 89.1485 281.283 88.3735 280.487 87.5782L270.29 77.3811L270.28 77.3709H270.27C270.248 77.3418 270.224 77.3145 270.198 77.2893C268.373 75.4538 266.65 73.7407 265.171 72.2622C266.786 72.8383 268.484 73.1516 270.198 73.1901C271.716 73.231 273.222 72.9131 274.593 72.2622C275.455 71.8534 276.252 71.3209 276.959 70.6816C277.216 70.4498 277.461 70.2047 277.693 69.9474L290.633 57.0074L290.654 56.987L295.762 51.8782C297.526 50.1141 299.24 48.401 300.84 46.8001L303.441 44.1998C303.736 43.9041 304.022 43.6186 304.307 43.3331C306.168 41.674 308.575 40.7591 311.068 40.7634H311.078C312.416 40.762 313.741 41.0253 314.976 41.538C316.212 42.0508 317.334 42.803 318.277 43.7512L318.308 43.7818C319.236 44.7097 320.225 45.6988 321.245 46.7185V46.7899H321.316L326.405 51.8782C328.087 53.5608 329.759 55.2331 331.35 56.8238L331.513 56.987Z" fill="#00C6DE"/>
<path d="M412.899 56.3C414.745 58.1559 416.479 59.8894 417.978 61.3883C416.361 60.6857 414.621 60.3113 412.859 60.2871L412.675 60.2871C411.117 60.2948 409.583 60.6723 408.199 61.3883C407.318 61.8364 406.507 62.41 405.792 63.0912C405.782 63.1014 405.772 63.1014 405.772 63.1218C405.71 63.1728 405.66 63.2238 405.598 63.285C405.547 63.336 405.486 63.3972 405.425 63.4685C405.36 63.5184 405.301 63.5767 405.252 63.6419C404.426 64.4577 403.549 65.3346 402.631 66.2422C402.549 66.3237 402.468 66.4155 402.376 66.4971C400.775 68.098 399.072 69.8111 397.308 71.5752C395.717 73.166 394.086 74.7975 392.464 76.4188L392.189 76.6941C390.619 78.2645 389.048 79.8348 387.519 81.3644L382.227 86.6567C382.145 86.7382 382.063 86.8198 381.982 86.8912C379.609 89.5667 376.139 92.469 372.019 92.5098H371.856C369.262 92.5256 366.754 91.5771 364.82 89.8483C364.616 89.6342 364.402 89.4201 364.178 89.2059C363.444 88.4615 362.669 87.6865 361.873 86.8911L351.676 76.6941L351.666 76.6839H351.656C351.634 76.6548 351.611 76.6275 351.585 76.6023C349.759 74.7668 348.036 73.0537 346.557 71.5752C348.173 72.1513 349.87 72.4646 351.585 72.5031C353.102 72.544 354.608 72.2261 355.979 71.5752C356.841 71.1664 357.638 70.6339 358.345 69.9946C358.602 69.7628 358.848 69.5177 359.079 69.2604L372.019 56.3203L372.04 56.2999L377.149 51.1912C378.913 49.4271 380.626 47.714 382.227 46.1131L384.827 43.5128C385.123 43.2171 385.408 42.9316 385.694 42.6461C387.554 40.9869 389.961 40.0721 392.454 40.0764H392.465C393.802 40.075 395.127 40.3383 396.363 40.851C397.598 41.3638 398.72 42.116 399.664 43.0642L399.694 43.0948C400.622 44.0227 401.611 45.0118 402.631 46.0315V46.1029H402.702L407.791 51.1912C409.473 52.8737 411.146 54.5461 412.736 56.1368L412.899 56.3Z" fill="#00C6DE"/>
<path d="M494.692 55.9929C496.538 57.8487 498.272 59.5822 499.771 61.0812C498.154 60.3785 496.414 60.0042 494.652 59.9799L494.468 59.9799C492.91 59.9877 491.376 60.3651 489.992 61.0812C489.111 61.5292 488.3 62.1029 487.585 62.7841C487.575 62.7943 487.565 62.7943 487.565 62.8147C487.503 62.8657 487.452 62.9167 487.391 62.9779C487.34 63.0288 487.279 63.09 487.218 63.1614C487.153 63.2113 487.094 63.2696 487.045 63.3348C486.219 64.1505 485.342 65.0275 484.424 65.935C484.342 66.0166 484.261 66.1084 484.169 66.1899C482.568 67.7909 480.865 69.504 479.101 71.2681C477.51 72.8588 475.879 74.4904 474.257 76.1117L473.982 76.387C472.412 77.9574 470.841 79.5277 469.312 81.0573L464.02 86.3495C463.938 86.4311 463.856 86.5127 463.775 86.5841C461.402 89.2596 457.932 92.1619 453.812 92.2027H453.649C451.055 92.2185 448.547 91.27 446.613 89.5412C446.409 89.3271 446.195 89.1129 445.971 88.8988C445.237 88.1544 444.462 87.3794 443.666 86.584L433.469 76.387L433.459 76.3768H433.449C433.427 76.3477 433.403 76.3204 433.377 76.2952C431.552 74.4597 429.829 72.7466 428.35 71.268C429.966 71.8442 431.663 72.1574 433.377 72.196C434.895 72.2369 436.401 71.919 437.772 71.268C438.634 70.8592 439.431 70.3268 440.138 69.6875C440.395 69.4557 440.64 69.2106 440.872 68.9533L453.812 56.0132L453.833 55.9928L458.942 50.8841C460.706 49.12 462.419 47.4069 464.02 45.806L466.62 43.2057C466.916 42.91 467.201 42.6245 467.487 42.339C469.347 40.6798 471.754 39.7649 474.247 39.7693H474.258C475.595 39.7679 476.92 40.0311 478.156 40.5439C479.391 41.0567 480.513 41.8088 481.457 42.757L481.487 42.7876C482.415 43.7156 483.404 44.7047 484.424 45.7244V45.7958H484.495L489.584 50.8841C491.266 52.5666 492.939 54.2389 494.529 55.8297L494.692 55.9929Z" fill="#00C6DE"/>
<path d="M311.151 37.1081C312.997 38.964 314.73 40.6975 316.229 42.1964C314.613 41.4938 312.873 41.1194 311.11 41.0952H310.927C309.369 41.1029 307.834 41.4804 306.45 42.1964C305.57 42.6445 304.759 43.2181 304.044 43.8994C304.034 43.9095 304.023 43.9095 304.023 43.9299C303.962 43.9809 303.911 44.0319 303.85 44.0931C303.799 44.1441 303.738 44.2053 303.677 44.2767C303.612 44.3265 303.553 44.3848 303.503 44.45C302.677 45.2658 301.8 46.1427 300.883 47.0503C300.801 47.1318 300.72 47.2236 300.628 47.3052C299.027 48.9061 297.324 50.6192 295.56 52.3833C293.969 53.9741 292.338 55.6056 290.716 57.2269L290.441 57.5022C288.871 59.0726 287.3 60.6429 285.771 62.1725L280.478 67.4648C280.397 67.5463 280.315 67.6279 280.234 67.6993C277.861 70.3748 274.391 73.2771 270.271 73.3179H270.108C267.514 73.3337 265.006 72.3852 263.072 70.6564C262.868 70.4423 262.654 70.2282 262.43 70.014C261.695 69.2696 260.92 68.4946 260.125 67.6992L249.928 57.5022L249.918 57.492H249.908C249.886 57.4629 249.862 57.4356 249.836 57.4104C248.011 55.5749 246.288 53.8618 244.809 52.3833C246.424 52.9594 248.122 53.2727 249.836 53.3112C251.354 53.3521 252.86 53.0342 254.231 52.3833C255.093 51.9745 255.89 51.442 256.597 50.8027C256.854 50.5709 257.099 50.3258 257.331 50.0685L270.271 37.1285L270.292 37.1081L275.4 31.9993C277.164 30.2352 278.877 28.5221 280.478 26.9212L283.079 24.3209C283.374 24.0252 283.66 23.7397 283.945 23.4542C285.806 21.795 288.213 20.8802 290.706 20.8845H290.716C292.054 20.8831 293.379 21.1464 294.614 21.6591C295.85 22.1719 296.972 22.9241 297.915 23.8723L297.946 23.9029C298.874 24.8308 299.863 25.8199 300.883 26.8396V26.911H300.954L306.042 31.9993C307.725 33.6818 309.397 35.3542 310.988 36.9449L311.151 37.1081Z" fill="#00DEEA"/>
<path d="M392.539 36.4209C394.384 38.2767 396.118 40.0102 397.617 41.5092C396.001 40.8065 394.26 40.4322 392.498 40.4079H392.315C390.756 40.4157 389.222 40.7931 387.838 41.5092C386.958 41.9572 386.147 42.5308 385.432 43.2121C385.421 43.2223 385.411 43.2223 385.411 43.2427C385.35 43.2937 385.299 43.3447 385.238 43.4058C385.187 43.4568 385.126 43.518 385.064 43.5894C384.999 43.6393 384.941 43.6975 384.891 43.7627C384.065 44.5785 383.188 45.4555 382.27 46.363C382.189 46.4446 382.107 46.5364 382.015 46.6179C380.415 48.2189 378.712 49.932 376.948 51.6961C375.357 53.2868 373.725 54.9183 372.104 56.5397L371.829 56.815C370.258 58.3853 368.688 59.9557 367.158 61.4852L361.866 66.7775C361.785 66.8591 361.703 66.9407 361.621 67.0121C359.249 69.6876 355.778 72.5899 351.659 72.6306H351.496C348.902 72.6465 346.394 71.6979 344.46 69.9691C344.256 69.755 344.042 69.5409 343.817 69.3267C343.083 68.5824 342.308 67.8074 341.513 67.012L331.316 56.8149L331.305 56.8047H331.295C331.274 56.7757 331.25 56.7484 331.224 56.7232C329.399 54.8877 327.675 53.1746 326.197 51.696C327.812 52.2721 329.509 52.5854 331.224 52.6239C332.742 52.6649 334.247 52.347 335.619 51.696C336.48 51.2872 337.277 50.7547 337.985 50.1155C338.242 49.8836 338.487 49.6386 338.719 49.3813L351.659 36.4412L351.679 36.4208L356.788 31.3121C358.552 29.548 360.265 27.8349 361.866 26.2339L364.466 23.6337C364.762 23.338 365.048 23.0524 365.333 22.7669C367.194 21.1078 369.601 20.1929 372.094 20.1973H372.104C373.442 20.1959 374.766 20.4591 376.002 20.9719C377.238 21.4847 378.359 22.2368 379.303 23.185L379.334 23.2156C380.262 24.1435 381.251 25.1327 382.27 26.1524V26.2237H382.342L387.43 31.3121C389.113 32.9946 390.785 34.6669 392.376 36.2577L392.539 36.4209Z" fill="#00DEEA"/>
<path d="M474.33 36.1142C476.176 37.9701 477.91 39.7036 479.408 41.2025C477.792 40.4999 476.052 40.1255 474.29 40.1013H474.106C472.548 40.109 471.014 40.4865 469.63 41.2025C468.749 41.6506 467.938 42.2242 467.223 42.9055C467.213 42.9157 467.203 42.9157 467.203 42.936C467.141 42.987 467.09 43.038 467.029 43.0992C466.978 43.1502 466.917 43.2114 466.856 43.2828C466.791 43.3326 466.732 43.3909 466.683 43.4561C465.857 44.2719 464.98 45.1488 464.062 46.0564C463.98 46.1379 463.899 46.2297 463.807 46.3113C462.206 47.9122 460.503 49.6253 458.739 51.3894C457.148 52.9802 455.517 54.6117 453.895 56.233L453.62 56.5084C452.05 58.0787 450.479 59.649 448.95 61.1786L443.658 66.4709C443.576 66.5524 443.494 66.634 443.413 66.7054C441.04 69.3809 437.57 72.2832 433.45 72.324H433.287C430.693 72.3399 428.185 71.3913 426.251 69.6625C426.047 69.4484 425.833 69.2343 425.609 69.0201C424.875 68.2757 424.1 67.5007 423.304 66.7054L413.107 56.5083L413.097 56.4981H413.087C413.065 56.469 413.041 56.4417 413.015 56.4165C411.19 54.581 409.467 52.8679 407.988 51.3894C409.604 51.9655 411.301 52.2788 413.015 52.3173C414.533 52.3582 416.039 52.0403 417.41 51.3894C418.272 50.9806 419.069 50.4481 419.776 49.8088C420.033 49.577 420.278 49.3319 420.51 49.0746L433.45 36.1346L433.471 36.1142L438.579 31.0054C440.344 29.2413 442.057 27.5282 443.658 25.9273L446.258 23.327C446.554 23.0313 446.839 22.7458 447.125 22.4603C448.985 20.8012 451.392 19.8863 453.885 19.8906H453.895C455.233 19.8892 456.558 20.1525 457.794 20.6652C459.029 21.178 460.151 21.9302 461.095 22.8784L461.125 22.909C462.053 23.8369 463.042 24.826 464.062 25.8457V25.9171H464.133L469.222 31.0054C470.904 32.688 472.576 34.3603 474.167 35.951L474.33 36.1142Z" fill="#00DEEA"/>
<path d="M290.587 17.2177C288.741 19.0736 287.007 20.8071 285.509 22.3061C287.125 21.6034 288.865 21.229 290.627 21.2048H290.811C292.369 21.2126 293.903 21.59 295.287 22.3061C296.168 22.7541 296.979 23.3277 297.694 24.009C297.704 24.0192 297.714 24.0192 297.714 24.0396C297.776 24.0905 297.827 24.1415 297.888 24.2027C297.939 24.2537 298 24.3149 298.061 24.3863C298.126 24.4361 298.185 24.4944 298.234 24.5596C299.06 25.3754 299.937 26.2523 300.855 27.1599C300.937 27.2415 301.018 27.3332 301.11 27.4148C302.711 29.0157 304.414 30.7288 306.178 32.4929C307.769 34.0837 309.4 35.7152 311.022 37.3365L311.297 37.6119C312.867 39.1822 314.438 40.7525 315.967 42.2821L321.259 47.5744C321.341 47.656 321.423 47.7376 321.504 47.8089C323.877 50.4845 327.347 53.3867 331.467 53.4275H331.63C334.224 53.4434 336.732 52.4948 338.666 50.766C338.87 50.5519 339.084 50.3378 339.308 50.1236C340.042 49.3792 340.817 48.6042 341.613 47.8089L351.81 37.6118L351.82 37.6016H351.83C351.852 37.5725 351.876 37.5452 351.902 37.52C353.727 35.6846 355.45 33.9715 356.929 32.4929C355.313 33.069 353.616 33.3823 351.902 33.4208C350.384 33.4618 348.878 33.1438 347.507 32.4929C346.645 32.0841 345.848 31.5516 345.141 30.9123C344.884 30.6805 344.639 30.4355 344.407 30.1782L331.467 17.2381L331.446 17.2177L326.338 12.109C324.573 10.3449 322.86 8.63176 321.259 7.03082L318.659 4.43056C318.363 4.13485 318.078 3.84932 317.792 3.56381C315.932 1.90467 313.525 0.989782 311.032 0.994156H311.022C309.684 0.99273 308.359 1.25598 307.123 1.76875C305.888 2.28153 304.766 3.03367 303.822 3.98189L303.792 4.01248C302.864 4.94041 301.875 5.92953 300.855 6.94924V7.02061H300.784L295.695 12.109C294.013 13.7915 292.341 15.4638 290.75 17.0545L290.587 17.2177Z" fill="#FCAF08"/>
<path d="M371.974 16.5305C370.129 18.3863 368.395 20.1198 366.896 21.6188C368.513 20.9161 370.253 20.5418 372.015 20.5175H372.199C373.757 20.5253 375.291 20.9027 376.675 21.6188C377.556 22.0668 378.366 22.6405 379.082 23.3217C379.092 23.3319 379.102 23.3319 379.102 23.3523C379.163 23.4033 379.214 23.4543 379.275 23.5155C379.326 23.5664 379.388 23.6276 379.449 23.699C379.514 23.7489 379.572 23.8072 379.622 23.8724C380.448 24.6881 381.325 25.5651 382.243 26.4726C382.324 26.5542 382.406 26.646 382.498 26.7275C384.099 28.3285 385.802 30.0416 387.566 31.8057C389.156 33.3964 390.788 35.028 392.409 36.6493L392.685 36.9246C394.255 38.495 395.825 40.0653 397.355 41.5949L402.647 46.8871C402.729 46.9687 402.81 47.0503 402.892 47.1217C405.264 49.7972 408.735 52.6995 412.854 52.7403H413.017C415.612 52.7561 418.119 51.8076 420.053 50.0788C420.257 49.8647 420.471 49.6505 420.696 49.4364C421.43 48.692 422.205 47.917 423 47.1216L433.197 36.9245L433.208 36.9144H433.218C433.239 36.8853 433.263 36.858 433.289 36.8328C435.115 34.9973 436.838 33.2842 438.316 31.8056C436.701 32.3818 435.004 32.695 433.289 32.7336C431.772 32.7745 430.266 32.4566 428.894 31.8056C428.033 31.3968 427.236 30.8644 426.529 30.2251C426.271 29.9933 426.026 29.7482 425.794 29.4909L412.854 16.5508L412.834 16.5304L407.725 11.4217C405.961 9.6576 404.248 7.9445 402.647 6.34356L400.047 3.74331C399.751 3.44759 399.466 3.16207 399.18 2.87655C397.319 1.21741 394.912 0.302527 392.419 0.3069H392.409C391.072 0.305474 389.747 0.568727 388.511 1.0815C387.276 1.59427 386.154 2.34642 385.21 3.29463L385.18 3.32522C384.252 4.25316 383.262 5.24228 382.243 6.26198V6.33335H382.171L377.083 11.4217C375.401 13.1042 373.728 14.7765 372.137 16.3673L371.974 16.5305Z" fill="#FCAF08"/>
<path d="M453.766 16.2236C451.92 18.0795 450.187 19.813 448.688 21.3119C450.304 20.6092 452.044 20.2349 453.807 20.2106H453.99C455.548 20.2184 457.083 20.5959 458.467 21.3119C459.347 21.76 460.158 22.3336 460.873 23.0148C460.883 23.025 460.894 23.025 460.894 23.0454C460.955 23.0964 461.006 23.1474 461.067 23.2086C461.118 23.2596 461.179 23.3208 461.24 23.3921C461.305 23.442 461.364 23.5003 461.414 23.5655C462.24 24.3812 463.117 25.2582 464.034 26.1657C464.116 26.2473 464.197 26.3391 464.289 26.4207C465.89 28.0216 467.593 29.7347 469.357 31.4988C470.948 33.0895 472.579 34.7211 474.201 36.3424L474.476 36.6177C476.046 38.1881 477.617 39.7584 479.146 41.288L484.439 46.5802C484.52 46.6618 484.602 46.7434 484.683 46.8148C487.056 49.4903 490.526 52.3926 494.646 52.4334H494.809C497.403 52.4492 499.911 51.5007 501.845 49.7719C502.049 49.5578 502.263 49.3437 502.487 49.1295C503.222 48.3851 503.997 47.6101 504.792 46.8147L514.989 36.6177L514.999 36.6075H515.009C515.031 36.5784 515.055 36.5511 515.081 36.5259C516.906 34.6904 518.629 32.9773 520.108 31.4987C518.493 32.0749 516.795 32.3882 515.081 32.4267C513.563 32.4676 512.057 32.1497 510.686 31.4987C509.824 31.0899 509.027 30.5575 508.32 29.9182C508.063 29.6864 507.818 29.4413 507.586 29.184L494.646 16.2439L494.625 16.2235L489.517 11.1148C487.753 9.35072 486.04 7.63762 484.439 6.03668L481.838 3.43642C481.543 3.14071 481.257 2.85518 480.972 2.56966C479.111 0.910526 476.704 -0.00435817 474.211 1.561e-05L474.201 1.561e-05C472.863 -0.00141065 471.538 0.261843 470.303 0.774613C469.067 1.28738 467.945 2.03953 467.002 2.98775L466.971 3.01834C466.043 3.94627 465.054 4.93539 464.034 5.9551V6.02647H463.963L458.875 11.1148C457.192 12.7973 455.52 14.4697 453.929 16.0604L453.766 16.2236Z" fill="#FCAF08"/>
</svg>
